<svg xmlns="http://www.w3.org/2000/svg" xmlns:xlink="http://www.w3.org/1999/xlink" width="472.76" height="433.561" viewBox="0 0 472.76 433.561">
  <defs>
    <clipPath id="clip-path">
      <path id="Rectangle_7" data-name="Rectangle 7" d="M0,0H15.239a0,0,0,0,1,0,0V5.421a2.867,2.867,0,0,1-2.867,2.867H2.867A2.867,2.867,0,0,1,0,5.421V0A0,0,0,0,1,0,0Z" transform="matrix(-0.161, 0.987, -0.987, -0.161, 74.845, 196.711)" fill="none"/>
    </clipPath>
    <clipPath id="clip-path-2">
      <path id="Path_55" data-name="Path 55" d="M422.913,260.482c-49.244-14.89-93.837-23.235-144.743-28.808l-5.525-55.252c47.716-14,90.132-31.132,136.983-55.675Z" fill="none"/>
    </clipPath>
    <clipPath id="clip-path-3">
      <ellipse id="Ellipse_20" data-name="Ellipse 20" cx="20.255" cy="70.183" rx="20.255" ry="70.183" transform="translate(389.772 123.061) rotate(-5.431)" fill="none"/>
    </clipPath>
    <clipPath id="clip-path-4">
      <path id="Path_63" data-name="Path 63" d="M75.323,359.9c37.139-11.23,70.769-17.524,109.162-21.727l4.167-41.669A546.087,546.087,0,0,1,85.342,254.52Z" fill="none"/>
    </clipPath>
    <clipPath id="clip-path-5">
      <path id="Path_67" data-name="Path 67" d="M95.307,308.958C92.541,338.059,83.489,361,75.091,360.2s-12.965-25.037-10.2-54.138,11.819-52.045,20.218-51.247S98.074,279.856,95.307,308.958Z" fill="none"/>
    </clipPath>
  </defs>
  <g id="OBJECTS" transform="translate(-15.576 -40.711)">
    <path id="Path_1" data-name="Path 1" d="M461.193,257.487c-1.1,145.069-97.057,215.947-216.776,216.776-159.411,1.1-219.388-97.082-216.776-216.776C30.95,105.8,124.695,40.711,244.417,40.711,389.486,40.711,462.1,137.768,461.193,257.487Z" fill="#ecd8aa"/>
    <g id="Group_11" data-name="Group 11">
      <g id="Group_1" data-name="Group 1">
        <path id="Path_2" data-name="Path 2" d="M191.6,447.523l112.366-.066c12.106-.007,20.459-9.6,18.655-21.431L278.87,139.021c-1.8-11.829-13.079-21.412-25.186-21.4l-112.366.066c-12.107.007-20.459,9.6-18.656,21.431l43.757,287C168.222,437.946,179.5,447.53,191.6,447.523Z" fill="#1b2258"/>
      </g>
      <g id="Group_2" data-name="Group 2">
        <path id="Path_3" data-name="Path 3" d="M192.6,439.042l120.02-.07c7,0,11.825-5.55,10.783-12.387L278.373,131.254a15.115,15.115,0,0,0-14.557-12.372l-120.02.07c-7,0-11.825,5.55-10.783,12.387L178.039,426.67A15.115,15.115,0,0,0,192.6,439.042Z" fill="#fff"/>
      </g>
      <path id="Path_4" data-name="Path 4" d="M195.3,131.218l20.394-.012a1.259,1.259,0,0,0,1.293-1.485h0a1.814,1.814,0,0,0-1.745-1.483l-20.394.012a1.259,1.259,0,0,0-1.292,1.485h0A1.81,1.81,0,0,0,195.3,131.218Z" fill="#070c54"/>
      <path id="Path_5" data-name="Path 5" d="M227.99,131.2h0a1.259,1.259,0,0,0,1.293-1.485h0a1.813,1.813,0,0,0-1.745-1.483h0a1.258,1.258,0,0,0-1.292,1.485h0A1.812,1.812,0,0,0,227.99,131.2Z" fill="#070c54"/>
      <g id="Group_3" data-name="Group 3">
        <path id="Path_6" data-name="Path 6" d="M144.225,256.452h0a2.469,2.469,0,0,0,2.536-2.914l-1.776-11.648a3.555,3.555,0,0,0-3.424-2.91h0a2.469,2.469,0,0,0-2.537,2.913l1.776,11.649A3.555,3.555,0,0,0,144.225,256.452Z" fill="#608aa2"/>
      </g>
      <g id="Group_4" data-name="Group 4">
        <path id="Path_7" data-name="Path 7" d="M135.829,201.387h0a2.47,2.47,0,0,0,2.537-2.914L132.957,163a3.555,3.555,0,0,0-3.424-2.911h0A2.47,2.47,0,0,0,127,163l5.408,35.475A3.555,3.555,0,0,0,135.829,201.387Z" fill="#608aa2"/>
      </g>
      <g id="Group_5" data-name="Group 5">
        <path id="Path_8" data-name="Path 8" d="M134.2,201.388h0a2.469,2.469,0,0,0,2.536-2.914L131.332,163a3.556,3.556,0,0,0-3.425-2.911h0A2.47,2.47,0,0,0,125.371,163l5.408,35.475A3.557,3.557,0,0,0,134.2,201.388Z" fill="#1b2258"/>
      </g>
      <g id="Group_6" data-name="Group 6">
        <path id="Path_9" data-name="Path 9" d="M142.6,256.453h0a2.469,2.469,0,0,0,2.536-2.914l-1.776-11.648a3.557,3.557,0,0,0-3.424-2.911h0a2.471,2.471,0,0,0-2.537,2.914l1.776,11.649A3.557,3.557,0,0,0,142.6,256.453Z" fill="#1b2258"/>
      </g>
      <g id="Group_7" data-name="Group 7">
        <path id="Path_10" data-name="Path 10" d="M147.373,277.1h0a2.469,2.469,0,0,0,2.536-2.913l-1.776-11.649a3.555,3.555,0,0,0-3.424-2.91h0a2.469,2.469,0,0,0-2.536,2.914l1.775,11.648A3.557,3.557,0,0,0,147.373,277.1Z" fill="#afb3bc"/>
      </g>
      <g id="Group_8" data-name="Group 8">
        <path id="Path_11" data-name="Path 11" d="M145.747,277.1h0a2.468,2.468,0,0,0,2.536-2.913l-1.775-11.649a3.557,3.557,0,0,0-3.425-2.91h0a2.469,2.469,0,0,0-2.536,2.914l1.776,11.648A3.555,3.555,0,0,0,145.747,277.1Z" fill="#1b2258"/>
      </g>
      <path id="Path_12" data-name="Path 12" d="M177.392,421.243l145.36-.085L279.769,139.225l-145.36.085Z" fill="#a2c3bf"/>
      <g id="Group_9" data-name="Group 9">
        <path id="Path_13" data-name="Path 13" d="M176.038,424.936l-44.5-291.861c-1.329-8.718,4.848-15.814,13.771-15.82l116.468-.068c8.923,0,17.263,7.083,18.592,15.8l44.5,291.86c1.329,8.718-4.849,15.815-13.771,15.82l-116.468.068C185.708,440.742,177.367,433.654,176.038,424.936ZM145.83,120.647c-7.008,0-11.861,5.579-10.817,12.426l44.5,291.861a15.183,15.183,0,0,0,14.6,12.411l116.469-.068c7.008,0,11.86-5.578,10.817-12.426L276.9,132.99a15.182,15.182,0,0,0-14.6-12.411Z" fill="#608aa2"/>
      </g>
      <g id="Group_10" data-name="Group 10">
        <path id="Path_14" data-name="Path 14" d="M178.311,425.784l-44.69-293.135c-1.133-7.432,4.133-13.481,11.739-13.486l116.956-.068c7.606-.005,14.716,6.038,15.848,13.469L322.856,425.7c1.132,7.431-4.133,13.481-11.739,13.485l-116.957.068A16.476,16.476,0,0,1,178.311,425.784ZM145.554,120.435c-6.889,0-11.658,5.483-10.632,12.213l44.691,293.135a14.92,14.92,0,0,0,14.353,12.2l116.957-.068c6.888,0,11.657-5.483,10.631-12.213L276.863,132.565a14.921,14.921,0,0,0-14.353-12.2Z" fill="#070c54"/>
      </g>
    </g>
    <path id="Path_15" data-name="Path 15" d="M200.454,409.408h98.861a7.534,7.534,0,0,0,7.521-8.765h0a8.6,8.6,0,0,0-8.4-7.274H199.569a7.534,7.534,0,0,0-7.521,8.764h0A8.6,8.6,0,0,0,200.454,409.408Z" fill="#fff" opacity="0.5"/>
    <g id="Group_12" data-name="Group 12" opacity="0.75">
      <path id="Path_16" data-name="Path 16" d="M136.716,365.9H264.6a1.823,1.823,0,0,0,1.816-2.141l-15.052-96.809a2.115,2.115,0,0,0-2.06-1.777H121.42a1.824,1.824,0,0,0-1.816,2.142l15.052,96.808A2.115,2.115,0,0,0,136.716,365.9Z" fill="#fff"/>
    </g>
    <g id="Group_13" data-name="Group 13" opacity="0.7">
      <path id="Path_17" data-name="Path 17" d="M180.821,312.323H315.985a1.928,1.928,0,0,0,1.92-2.263L302,207.74a2.237,2.237,0,0,0-2.178-1.879H164.655a1.928,1.928,0,0,0-1.919,2.263l15.908,102.32A2.237,2.237,0,0,0,180.821,312.323Z" fill="#47ada1"/>
    </g>
    <circle id="Ellipse_1" data-name="Ellipse 1" cx="10.905" cy="10.905" r="10.905" transform="translate(413.537 339.242)" fill="#ecd8aa"/>
    <circle id="Ellipse_2" data-name="Ellipse 2" cx="34.856" cy="34.856" r="34.856" transform="translate(62.255 390.826)" fill="#ecd8aa"/>
    <circle id="Ellipse_3" data-name="Ellipse 3" cx="11.627" cy="11.627" r="11.627" transform="translate(397.22 58.572)" fill="#ecd8aa"/>
    <path id="Path_18" data-name="Path 18" d="M392.393,109.73a7.3,7.3,0,1,1,7.3-7.3A7.308,7.308,0,0,1,392.393,109.73Zm0-13.6a6.3,6.3,0,1,0,6.3,6.3A6.308,6.308,0,0,0,392.393,96.13Z" fill="#1b2258"/>
    <path id="Path_19" data-name="Path 19" d="M104.3,388.4a4.1,4.1,0,1,1,4.1-4.1A4.1,4.1,0,0,1,104.3,388.4Zm0-7.2a3.1,3.1,0,1,0,3.1,3.1A3.1,3.1,0,0,0,104.3,381.2Z" fill="#1b2258"/>
    <path id="Path_20" data-name="Path 20" d="M441.535,86.086a5.841,5.841,0,1,1-5.841-5.841A5.841,5.841,0,0,1,441.535,86.086Z" fill="#ecd8aa"/>
    <circle id="Ellipse_4" data-name="Ellipse 4" cx="32.378" cy="32.378" r="32.378" transform="translate(394.844 349.183) rotate(-10.28)" fill="#ecd8aa"/>
    <circle id="Ellipse_5" data-name="Ellipse 5" cx="12.395" cy="12.395" r="12.395" transform="translate(343.751 367.966) rotate(-22.322)" fill="#fff"/>
    <circle id="Ellipse_6" data-name="Ellipse 6" cx="10.101" cy="10.101" r="10.101" transform="translate(359.148 130.236)" fill="#fff"/>
    <circle id="Ellipse_7" data-name="Ellipse 7" cx="12.313" cy="12.313" r="12.313" transform="translate(367.703 444.783) rotate(-75.714)" fill="#fff"/>
    <circle id="Ellipse_8" data-name="Ellipse 8" cx="5.177" cy="5.177" r="5.177" transform="translate(353.785 417.869)" fill="#fff"/>
    <circle id="Ellipse_9" data-name="Ellipse 9" cx="9.233" cy="9.233" r="9.233" transform="translate(15.576 268.637) rotate(-70.097)" fill="#fff"/>
    <g id="Group_14" data-name="Group 14">
      <path id="Path_21" data-name="Path 21" d="M306.318,359.983,268.7,316.593,244.683,351.3l-.822-.568,24.754-35.769,37.293,43.02,10.34-32.318,17.07,19.622L345,306.69l36.271,41.23-.75.66L345.435,308.7l-11.683,38.608L316.66,327.661Z" fill="#1b2258"/>
      <ellipse id="Ellipse_10" data-name="Ellipse 10" cx="10.464" cy="12.298" rx="10.464" ry="12.298" transform="translate(229.368 344.8) rotate(-33.584)" fill="#1b2258"/>
      <ellipse id="Ellipse_11" data-name="Ellipse 11" cx="14.589" cy="17.147" rx="14.589" ry="17.147" transform="matrix(0.833, -0.553, 0.553, 0.833, 283.655, 357.694)" fill="#1b2258"/>
      <ellipse id="Ellipse_12" data-name="Ellipse 12" cx="11.829" cy="13.903" rx="11.829" ry="13.903" transform="matrix(0.833, -0.553, 0.553, 0.833, 328.051, 302.978)" fill="#c13f4f"/>
      <path id="Path_22" data-name="Path 22" d="M392.8,349.941c1.13,5.922-2.377,10.99-7.834,11.321s-10.8-4.2-11.927-10.123,2.377-10.99,7.834-11.32S391.67,344.02,392.8,349.941Z" fill="#1b2258"/>
      <path id="Path_23" data-name="Path 23" d="M278.657,315.173c1.144,5.992-2.406,11.12-7.927,11.454s-10.925-4.251-12.069-10.242,2.406-11.12,7.928-11.455S277.513,309.182,278.657,315.173Z" fill="#c13f4f"/>
      <path id="Path_24" data-name="Path 24" d="M340.693,345.864c.818,4.289-1.723,7.961-5.675,8.2s-7.821-3.043-8.64-7.333,1.722-7.96,5.675-8.2S339.874,341.575,340.693,345.864Z" fill="#1b2258"/>
      <path id="Path_25" data-name="Path 25" d="M320.325,326.428a3.507,3.507,0,0,1-3.07,4.436,4.775,4.775,0,0,1-4.673-3.967,3.506,3.506,0,0,1,3.07-4.435A4.775,4.775,0,0,1,320.325,326.428Z" fill="#c13f4f"/>
    </g>
    <g id="Group_15" data-name="Group 15">
      <path id="Path_26" data-name="Path 26" d="M226.647,261.661,223.94,246a7.2,7.2,0,0,1,1.429-6,5.734,5.734,0,0,1,4.57-1.947l47.269,1.327-.013.5-47.27-1.327a5.192,5.192,0,0,0-4.178,1.774,6.711,6.711,0,0,0-1.313,5.585l2.707,15.659Z" fill="#222540"/>
      <path id="Path_27" data-name="Path 27" d="M301.3,278.848l-63.313-1.78a6.421,6.421,0,0,1-5.7-5.347l-.886-4.82.492-.089.886,4.819c.488,2.656,2.83,4.871,5.22,4.937l63.312,1.78Z" fill="#222540"/>
      <path id="Path_28" data-name="Path 28" d="M224.08,288.586l-.208,0-21.18-.6.014-.5,21.18.6a5.512,5.512,0,0,0,4.338-1.711,4.583,4.583,0,0,0,1.034-3.82l-3.042-19.023.494-.078,3.042,19.023A5.075,5.075,0,0,1,228.6,286.7,5.942,5.942,0,0,1,224.08,288.586Z" fill="#222540"/>
      <path id="Path_29" data-name="Path 29" d="M254.9,263.08l-60.462-1.7c-4.144-.117-8.119-3.927-8.863-8.491L183.2,238.316l.493-.08,2.374,14.575c.707,4.339,4.468,7.96,8.383,8.071l60.463,1.7Z" fill="#222540"/>
      <path id="Path_30" data-name="Path 30" d="M307.071,278.334c.464,2.849-1.25,5.1-3.829,5.028s-5.045-2.441-5.509-5.291,1.25-5.1,3.828-5.029S306.607,275.484,307.071,278.334Z" fill="#1b2258"/>
      <path id="Path_31" data-name="Path 31" d="M284.425,240.263c.6,3.658-1.6,6.548-4.915,6.455s-6.476-3.134-7.072-6.792,1.6-6.549,4.915-6.455S283.829,236.6,284.425,240.263Z" fill="#1b2258"/>
      <path id="Path_32" data-name="Path 32" d="M208.734,287.482c.572,3.511-1.54,6.284-4.717,6.2s-6.215-3.007-6.787-6.518,1.54-6.285,4.716-6.2S208.162,283.971,208.734,287.482Z" fill="#38668a"/>
      <path id="Path_33" data-name="Path 33" d="M262.736,262.9c.613,3.759-1.648,6.729-5.05,6.633s-6.655-3.22-7.268-6.979,1.649-6.73,5.051-6.634S262.124,259.14,262.736,262.9Z" fill="#1b2258"/>
      <ellipse id="Ellipse_13" data-name="Ellipse 13" cx="5.626" cy="7.024" rx="5.626" ry="7.024" transform="matrix(0.832, -0.554, 0.554, 0.832, 175.434, 234.288)" fill="#c13f4f"/>
      <path id="Path_34" data-name="Path 34" d="M235.867,261.87c.892,5.476-2.4,9.8-7.358,9.664s-9.7-4.692-10.587-10.168,2.4-9.8,7.357-9.664S234.975,256.393,235.867,261.87Z" fill="#1b2258"/>
    </g>
    <g id="Group_16" data-name="Group 16">
      <path id="Path_35" data-name="Path 35" d="M102.563,455.657a3.005,3.005,0,0,1-.527.144l-.4.058q-2.079.3-3.775.4a31.138,31.138,0,0,1-3.176.045,26.852,26.852,0,0,1-2.878-.272q-1.4-.209-2.875-.477a16.027,16.027,0,0,1,.142-3.066q.219-1.572.554-3.056,2.385.411,4.882.634a26.026,26.026,0,0,0,5.916-.267q5.5-.787,7.874-3.319a7.22,7.22,0,0,0,1.835-6.286,7.8,7.8,0,0,0-1.022-3.07,6.116,6.116,0,0,0-2.028-1.968,12.618,12.618,0,0,0-3.128-1.3q-1.854-.52-4.346-1.191L96.2,431.8a25.833,25.833,0,0,1-3.947-1.282,12.757,12.757,0,0,1-3.259-1.962,9.693,9.693,0,0,1-2.378-2.978,13.54,13.54,0,0,1-1.314-4.4,11.894,11.894,0,0,1,1.906-8.9q2.647-3.732,8.365-5.374l-.932-6.505a8.911,8.911,0,0,1,2.241-.6,10.045,10.045,0,0,1,2.452-.078l.895,6.236a45.918,45.918,0,0,1,5.619-.19,25.824,25.824,0,0,1,4.834.539,21.227,21.227,0,0,1-.677,5.777,30.841,30.841,0,0,0-4.326-.577,26.377,26.377,0,0,0-5.5.276,11.3,11.3,0,0,0-6.274,2.543,5.715,5.715,0,0,0-1.568,5.289,6.077,6.077,0,0,0,1,2.7,6.279,6.279,0,0,0,2.076,1.824,13.986,13.986,0,0,0,3.052,1.239q1.748.5,3.952,1.076l2.7.707a44.924,44.924,0,0,1,4.657,1.454,13.391,13.391,0,0,1,3.685,2.072,10.77,10.77,0,0,1,2.646,3.18,13.87,13.87,0,0,1,1.474,4.785,13.425,13.425,0,0,1-1.921,9.753,16.183,16.183,0,0,1-8.475,6.041l1.106,7.712a8.838,8.838,0,0,1-1.112.365,10.4,10.4,0,0,1-1.13.23,10.953,10.953,0,0,1-1.217.106,11.346,11.346,0,0,1-1.235-.028Z" fill="#ff7575"/>
    </g>
    <g id="Group_17" data-name="Group 17">
      <path id="Path_36" data-name="Path 36" d="M137.236,431.378a2.772,2.772,0,0,1-.466.128l-.356.051q-1.838.262-3.336.357a27.577,27.577,0,0,1-2.807.04,23.9,23.9,0,0,1-2.544-.241q-1.236-.185-2.54-.422a14.147,14.147,0,0,1,.125-2.709q.194-1.389.489-2.7,2.109.363,4.315.561a22.986,22.986,0,0,0,5.229-.236q4.858-.7,6.958-2.934a6.379,6.379,0,0,0,1.623-5.555,6.931,6.931,0,0,0-.9-2.714,5.407,5.407,0,0,0-1.793-1.738,11.084,11.084,0,0,0-2.765-1.146q-1.638-.46-3.84-1.052l-3.015-.778a22.894,22.894,0,0,1-3.488-1.132,11.3,11.3,0,0,1-2.881-1.735,8.55,8.55,0,0,1-2.1-2.632,11.951,11.951,0,0,1-1.162-3.886,10.515,10.515,0,0,1,1.685-7.863,13.092,13.092,0,0,1,7.393-4.749l-.824-5.749a7.926,7.926,0,0,1,1.981-.527,8.932,8.932,0,0,1,2.167-.068l.791,5.512a40.416,40.416,0,0,1,4.966-.169,22.879,22.879,0,0,1,4.272.477,18.81,18.81,0,0,1-.6,5.106,27.132,27.132,0,0,0-3.824-.51,23.293,23.293,0,0,0-4.864.244,9.992,9.992,0,0,0-5.545,2.246,5.055,5.055,0,0,0-1.386,4.675,5.364,5.364,0,0,0,.886,2.383,5.545,5.545,0,0,0,1.835,1.612,12.322,12.322,0,0,0,2.7,1.1q1.545.445,3.493.951l2.388.625a39.967,39.967,0,0,1,4.116,1.285,11.825,11.825,0,0,1,3.256,1.831,9.518,9.518,0,0,1,2.339,2.81,12.243,12.243,0,0,1,1.3,4.229,11.867,11.867,0,0,1-1.7,8.62,14.3,14.3,0,0,1-7.491,5.339l.978,6.816a7.905,7.905,0,0,1-.982.322,9.54,9.54,0,0,1-1,.2,9.883,9.883,0,0,1-1.076.094,10.506,10.506,0,0,1-1.092-.025Z" fill="#c13f4f"/>
    </g>
    <g id="Group_20" data-name="Group 20">
      <g id="Group_19" data-name="Group 19">
        <g id="Group_18" data-name="Group 18">
          <path id="Path_37" data-name="Path 37" d="M80.185,86.334a5.464,5.464,0,1,1-10.921-.387,5.273,5.273,0,0,1,.075-.552,32.866,32.866,0,0,0-6.227,1.443,5.325,5.325,0,0,1,.337.5A5.464,5.464,0,1,1,53.8,92.468a5.293,5.293,0,0,1-.225-.55,33.279,33.279,0,0,0-4.7,4.378,5.451,5.451,0,1,1-5.212,9.552,5.354,5.354,0,0,1-.523-.4,32.857,32.857,0,0,0-1.9,6.186,5.194,5.194,0,0,1,.72-.047A5.467,5.467,0,1,1,40.847,122.4a32.853,32.853,0,0,0,1.455,6.363,5.465,5.465,0,1,1,5.046,9.51,33.309,33.309,0,0,0,4.483,4.81,5.466,5.466,0,1,1,9.12,5.7,32.873,32.873,0,0,0,6.321,1.918,5.377,5.377,0,0,1-.059-.9,5.466,5.466,0,1,1,10.8,1.244,32.833,32.833,0,0,0,6.429-1.507,5.469,5.469,0,1,1,9.47-5.1,33.4,33.4,0,0,0,4.778-4.514,5.469,5.469,0,1,1,5.653-9.163,32.817,32.817,0,0,0,1.861-6.259,5.453,5.453,0,1,1-.388-10.871,5.569,5.569,0,0,1,.677.093,32.906,32.906,0,0,0-1.5-6.293,5.214,5.214,0,0,1-.577.385A5.464,5.464,0,1,1,99.3,98.166a5.6,5.6,0,0,1,.566-.231,33.251,33.251,0,0,0-4.4-4.667,5.388,5.388,0,0,1-.277.56,5.47,5.47,0,1,1-8.913-6.25,32.965,32.965,0,0,0-6.124-1.839A5.338,5.338,0,0,1,80.185,86.334ZM95.966,119.01A22.267,22.267,0,1,1,74.5,95.968,22.267,22.267,0,0,1,95.966,119.01Z" fill="#6ba7b3"/>
        </g>
        <path id="Path_38" data-name="Path 38" d="M98.494,113.208A25.3,25.3,0,1,0,78.7,143.022,25.331,25.331,0,0,0,98.494,113.208ZM77.058,134.882a17,17,0,1,1,13.3-20.03A17.02,17.02,0,0,1,77.058,134.882Z" fill="#6ba7b3"/>
      </g>
    </g>
    <g id="Group_23" data-name="Group 23">
      <g id="Group_22" data-name="Group 22">
        <g id="Group_21" data-name="Group 21">
          <path id="Path_39" data-name="Path 39" d="M126.716,61.908a4.522,4.522,0,0,1-9.039-.32,4.328,4.328,0,0,1,.062-.457,27.286,27.286,0,0,0-5.154,1.194,4.279,4.279,0,0,1,.279.418,4.522,4.522,0,1,1-7.988,4.242,4.434,4.434,0,0,1-.186-.455,27.607,27.607,0,0,0-3.888,3.623,4.333,4.333,0,0,1,.483.239,4.522,4.522,0,0,1-4.8,7.668,4.38,4.38,0,0,1-.433-.336,27.18,27.18,0,0,0-1.57,5.12,4.513,4.513,0,1,1,.276,9,4.319,4.319,0,0,1-.605-.083,27.2,27.2,0,0,0,1.2,5.267,4.524,4.524,0,1,1,4.177,7.871,27.529,27.529,0,0,0,3.71,3.981,4.422,4.422,0,0,1,.318-.644,4.522,4.522,0,0,1,7.668,4.8,4.453,4.453,0,0,1-.438.565,27.2,27.2,0,0,0,5.232,1.588,4.516,4.516,0,1,1,8.991-.427,4.6,4.6,0,0,1-.1.71,27.249,27.249,0,0,0,5.321-1.248,4.466,4.466,0,0,1-.412-.616,4.522,4.522,0,1,1,7.988-4.243,4.41,4.41,0,0,1,.261.638,27.57,27.57,0,0,0,3.955-3.735,4.476,4.476,0,0,1-.625-.309,4.524,4.524,0,1,1,5.3-7.275,27.17,27.17,0,0,0,1.54-5.18,4.673,4.673,0,0,1-.641.042,4.526,4.526,0,1,1,.88-8.963,27.206,27.206,0,0,0-1.237-5.208,4.512,4.512,0,1,1-4.72-7.669A4.383,4.383,0,0,1,143,71.51a27.589,27.589,0,0,0-3.646-3.863,4.247,4.247,0,0,1-.229.464,4.528,4.528,0,1,1-7.377-5.172,27.087,27.087,0,0,0-5.068-1.522A4.417,4.417,0,0,1,126.716,61.908Zm13.061,27.045a18.43,18.43,0,1,1-17.766-19.07A18.43,18.43,0,0,1,139.777,88.953Z" fill="#38668a"/>
        </g>
        <path id="Path_40" data-name="Path 40" d="M141.87,84.151a20.943,20.943,0,1,0-16.382,24.676A20.966,20.966,0,0,0,141.87,84.151ZM124.127,102.09a14.07,14.07,0,1,1,11.006-16.578A14.086,14.086,0,0,1,124.127,102.09Z" fill="#38668a"/>
      </g>
    </g>
    <g id="Group_26" data-name="Group 26">
      <g id="Group_25" data-name="Group 25">
        <g id="Group_24" data-name="Group 24">
          <path id="Path_41" data-name="Path 41" d="M392.6,266.536a3.425,3.425,0,1,1-6.846-.243,3.255,3.255,0,0,1,.047-.345,20.543,20.543,0,0,0-3.9.9,3.475,3.475,0,0,1,.211.316,3.426,3.426,0,0,1-6.051,3.214,3.283,3.283,0,0,1-.14-.345,20.847,20.847,0,0,0-2.945,2.744,3.357,3.357,0,0,1,.366.181,3.428,3.428,0,1,1-3.962,5.554,20.607,20.607,0,0,0-1.188,3.878,3.2,3.2,0,0,1,.451-.029,3.425,3.425,0,0,1-.242,6.846,3.293,3.293,0,0,1-.459-.062,20.683,20.683,0,0,0,.912,3.989,3.5,3.5,0,0,1,.421-.281,3.427,3.427,0,1,1,2.743,6.243,20.9,20.9,0,0,0,2.81,3.016,3.464,3.464,0,0,1,.241-.489,3.426,3.426,0,0,1,5.809,3.634,3.512,3.512,0,0,1-.332.428,20.567,20.567,0,0,0,3.963,1.2,3.428,3.428,0,1,1,6.736.214,20.557,20.557,0,0,0,4.031-.945,3.421,3.421,0,1,1,5.739-3.68,3.222,3.222,0,0,1,.2.483,20.834,20.834,0,0,0,3-2.829,3.462,3.462,0,0,1-.473-.234,3.426,3.426,0,0,1,3.633-5.809,3.55,3.55,0,0,1,.385.3,20.62,20.62,0,0,0,1.166-3.924,3.419,3.419,0,1,1-.243-6.815,3.277,3.277,0,0,1,.424.058,20.656,20.656,0,0,0-.937-3.945,3.5,3.5,0,0,1-.362.242,3.426,3.426,0,0,1-3.214-6.051,3.576,3.576,0,0,1,.355-.145,20.886,20.886,0,0,0-2.761-2.926,3.466,3.466,0,0,1-.174.351A3.425,3.425,0,1,1,396.2,267.6a3.232,3.232,0,0,1,.221-.285,20.681,20.681,0,0,0-3.84-1.153A3.3,3.3,0,0,1,392.6,266.536Zm9.894,20.485a13.96,13.96,0,1,1-13.457-14.445A13.96,13.96,0,0,1,402.5,287.021Z" fill="#ff7575"/>
        </g>
        <path id="Path_42" data-name="Path 42" d="M404.083,283.384a15.864,15.864,0,1,0-12.408,18.691A15.881,15.881,0,0,0,404.083,283.384Zm-13.439,13.588a10.658,10.658,0,1,1,8.336-12.557A10.669,10.669,0,0,1,390.644,296.972Z" fill="#ff7575"/>
      </g>
    </g>
    <g id="Group_28" data-name="Group 28">
      <circle id="Ellipse_14" data-name="Ellipse 14" cx="23.309" cy="23.309" r="23.309" transform="translate(190.362 43.772)" fill="#e84b4b"/>
      <g id="Group_27" data-name="Group 27">
        <circle id="Ellipse_15" data-name="Ellipse 15" cx="6.17" cy="6.17" r="6.17" transform="translate(207.501 53.94)" fill="#fff"/>
        <path id="Path_43" data-name="Path 43" d="M226.285,77.48a13.009,13.009,0,0,0-25.228,0Z" fill="#fff"/>
      </g>
    </g>
    <g id="Group_30" data-name="Group 30">
      <circle id="Ellipse_16" data-name="Ellipse 16" cx="23.309" cy="23.309" r="23.309" transform="matrix(0.683, -0.73, 0.73, 0.683, 133.512, 158.742)" fill="#c13f4f"/>
      <g id="Group_29" data-name="Group 29">
        <path id="Path_44" data-name="Path 44" d="M172.356,150.434a6.17,6.17,0,1,1-6.4-5.929A6.17,6.17,0,0,1,172.356,150.434Z" fill="#fff"/>
        <path id="Path_45" data-name="Path 45" d="M179.462,167.544a13.008,13.008,0,0,0-25.209.969Z" fill="#fff"/>
      </g>
    </g>
    <g id="Group_34" data-name="Group 34">
      <rect id="Rectangle_2" data-name="Rectangle 2" width="5.898" height="54.503" rx="2.325" transform="translate(26.41 199.178) rotate(-80.362)" fill="#1b2258"/>
      <g id="Group_33" data-name="Group 33">
        <g id="Group_32" data-name="Group 32" clip-path="url(#clip-path)">
          <g id="Group_31" data-name="Group 31">
            <rect id="Rectangle_3" data-name="Rectangle 3" width="12.339" height="8.288" transform="matrix(-0.161, 0.987, -0.987, -0.161, 74.612, 198.142)" fill="#1b2258"/>
            <rect id="Rectangle_4" data-name="Rectangle 4" width="0.5" height="10.774" transform="translate(64.766 199.312) rotate(-80.752)" fill="#70a1bd"/>
            <rect id="Rectangle_5" data-name="Rectangle 5" width="0.5" height="10.774" transform="translate(64.166 202.993) rotate(-80.752)" fill="#70a1bd"/>
            <rect id="Rectangle_6" data-name="Rectangle 6" width="0.5" height="10.774" transform="translate(63.567 206.674) rotate(-80.755)" fill="#70a1bd"/>
          </g>
        </g>
      </g>
      <circle id="Ellipse_17" data-name="Ellipse 17" cx="22.843" cy="22.843" r="22.843" transform="translate(60.834 207.597) rotate(-46.454)" fill="#1b2258"/>
      <circle id="Ellipse_18" data-name="Ellipse 18" cx="18.506" cy="18.506" r="18.506" transform="matrix(0.072, -0.997, 0.997, 0.072, 73.345, 223.908)" fill="#70a1bd"/>
      <path id="Path_46" data-name="Path 46" d="M83.922,217.152a13.887,13.887,0,0,1-1.169-19.582l.374.332a13.387,13.387,0,0,0,1.127,18.876Z" fill="#1b2258"/>
    </g>
    <g id="Group_36" data-name="Group 36" opacity="0.77">
      <path id="Path_47" data-name="Path 47" d="M214.314,254.827H348.163a1.909,1.909,0,0,0,1.9-2.241L334.31,151.261a2.215,2.215,0,0,0-2.156-1.86H198.3a1.909,1.909,0,0,0-1.9,2.242l15.753,101.324A2.215,2.215,0,0,0,214.314,254.827Z" fill="#fff"/>
      <g id="Group_35" data-name="Group 35">
        <path id="Path_48" data-name="Path 48" d="M219.315,212.077h86.217c.778,0,1.376-.466,1.291-1.006L299.668,165.6a1.264,1.264,0,0,0-1.334-.835H212.116c-.777,0-1.375.466-1.29,1.006l7.155,45.468A1.263,1.263,0,0,0,219.315,212.077Z" fill="#ff7575"/>
      </g>
    </g>
    <g id="Group_37" data-name="Group 37">
      <path id="Path_49" data-name="Path 49" d="M316.381,63.515c-32.819,2.16-58.612,16.248-57.61,31.466.854,12.987,20.951,22.593,47.219,23.791-1.37-.062-2.764,13.8-2.783,15.46a60.066,60.066,0,0,0,2.636,18.31c.5,1.622,1.164,3.348,2.61,4.235-.588-10.853.669-22.492,5.782-32.217a30.646,30.646,0,0,1,4.083-5.843c.563-.03,1.123-.054,1.69-.091,32.818-2.16,58.611-16.248,57.609-31.466S349.2,61.355,316.381,63.515Z" fill="#ff7575"/>
      <path id="Path_50" data-name="Path 50" d="M306.007,98.7a3.663,3.663,0,0,1-.475-.031,4.367,4.367,0,0,1-2.916-1.724,7.281,7.281,0,0,1-.907-5.541A15.991,15.991,0,0,1,305.5,83.48q-.234-.168-.487-.32a8.454,8.454,0,0,0-9.8.361,13.645,13.645,0,0,0-4.97,13.395l-.975.227a14.5,14.5,0,0,1,5.355-14.429,9.4,9.4,0,0,1,10.9-.412,7.374,7.374,0,0,1,.664.444,15.535,15.535,0,0,1,3.913-2.869,16.077,16.077,0,0,1,14.259-.078,10.679,10.679,0,0,1,2.136,1.369,16.555,16.555,0,0,1,6.685-2.8,8,8,0,0,1,2.8,0,7.587,7.587,0,0,1,2.543,1.1,13.166,13.166,0,0,1,6.015,11.36l-1-.033a12.148,12.148,0,0,0-5.55-10.483,6.647,6.647,0,0,0-2.207-.959,7,7,0,0,0-2.456.015,15.4,15.4,0,0,0-6.1,2.52c.128.144.25.291.362.442,1.3,1.747,1.581,4.046,1.8,5.894a14.4,14.4,0,0,1-.01,5.133,5.217,5.217,0,0,1-3.481,3.94,4.138,4.138,0,0,1-3.232-.571A5.546,5.546,0,0,1,320.2,93.2a9.912,9.912,0,0,1,1.887-7.741,17.047,17.047,0,0,1,3.574-3.679,10.081,10.081,0,0,0-1.746-1.082,15.066,15.066,0,0,0-13.357.073,14.533,14.533,0,0,0-3.607,2.629c2.943,2.869,3.287,7.78,2.582,11.462a5.207,5.207,0,0,1-1.5,3.139A3.119,3.119,0,0,1,306.007,98.7Zm.26-14.577a14.972,14.972,0,0,0-3.572,7.441,6.347,6.347,0,0,0,.734,4.8,3.339,3.339,0,0,0,2.229,1.314,2.217,2.217,0,0,0,1.731-.448,4.345,4.345,0,0,0,1.164-2.56C309.207,91.255,308.919,86.717,306.267,84.124Zm20.141-1.665a16.14,16.14,0,0,0-3.5,3.568,8.948,8.948,0,0,0-1.728,6.967,4.6,4.6,0,0,0,2.018,2.87,3.151,3.151,0,0,0,2.454.45,4.215,4.215,0,0,0,2.76-3.208,13.449,13.449,0,0,0-.012-4.776c-.219-1.82-.467-3.883-1.612-5.415A5.351,5.351,0,0,0,326.408,82.459Z"/>
    </g>
    <g id="Group_42" data-name="Group 42">
      <path id="Path_51" data-name="Path 51" d="M255.236,218.842h0a10.958,10.958,0,0,1-11.945-9.871l-.637-6.7a10.957,10.957,0,0,1,9.871-11.944h0a10.957,10.957,0,0,1,11.944,9.87l.637,6.7A10.957,10.957,0,0,1,255.236,218.842Z" fill="#1b2258"/>
      <path id="Path_52" data-name="Path 52" d="M271.518,282.092a69.617,69.617,0,0,1-1.942,11.351c-.512,1.964.458,4.217,2.018,4.567,5.479,1.228,12.462-1.538,13.276-5.356,7.463-20.265,5.153-45.083,1.4-62.967-1.068-5.087-5.8-8.208-7.947-12.539-2.176-4.392-3.013-9.537-7.474-11.25a6.935,6.935,0,0,0-6.322.728c-1.707,1.082-4.288,2.221-5.1,4.992a10.252,10.252,0,0,0,.451,6.482C273.651,251.4,272.17,271.206,271.518,282.092Z" fill="#c13f4f"/>
      <path id="Path_53" data-name="Path 53" d="M422.913,260.482c-49.244-14.89-93.837-23.235-144.743-28.808l-5.525-55.252c47.716-14,90.132-31.132,136.983-55.675Z" fill="#70a1bd"/>
      <g id="Group_39" data-name="Group 39">
        <g id="Group_38" data-name="Group 38" clip-path="url(#clip-path-2)">
          <path id="Path_54" data-name="Path 54" d="M394.533,213.237a270.386,270.386,0,0,1-62.34-1.286c-19.995-2.74-38.019-10.05-57.42-14.5-11.083-2.541-9.656-.534-10.645,10.829-.446,5.124-1.346,10.583-1.028,15.737a100.7,100.7,0,0,0,8.1,34.466c8.593,19.269,36.368,23.278,55.519,26.827a287.55,287.55,0,0,0,78.834,3.58c22.823-2.117,47.217-8.033,61.806-25.712a52.211,52.211,0,0,0,10.71-43.065c-3.623-17.65-13.817-22.686-30.741-17.432A262.242,262.242,0,0,1,394.533,213.237Z" fill="#5c8eab"/>
        </g>
      </g>
      <ellipse id="Ellipse_19" data-name="Ellipse 19" cx="20.255" cy="70.183" rx="20.255" ry="70.183" transform="translate(389.772 123.061) rotate(-5.431)" fill="#38668a"/>
      <path id="Path_56" data-name="Path 56" d="M287.066,233.043l-2.1.2a30.008,30.008,0,0,1-32.714-27.034h0a30.009,30.009,0,0,1,27.034-32.715l2.1-.2Z" fill="#38668a"/>
      <g id="Group_41" data-name="Group 41">
        <g id="Group_40" data-name="Group 40" clip-path="url(#clip-path-3)">
          <path id="Path_57" data-name="Path 57" d="M421.005,190.714c1.123,11.812-7.086,22.254-18.336,23.324s-21.279-7.639-22.4-19.451,7.086-22.255,18.336-23.324S419.882,178.9,421.005,190.714Z" fill="#1b2258"/>
        </g>
      </g>
      <path id="Path_58" data-name="Path 58" d="M422.672,261.9c-11.662,0-23.543-29.863-27.252-68.882h0c-3.778-39.735,2.557-71.746,14.422-72.875,11.871-1.151,24.119,29.115,27.9,68.852,1.783,18.752,1.35,36.6-1.221,50.245-2.644,14.035-7.332,22.071-13.2,22.629Q422.995,261.905,422.672,261.9ZM410.521,122.116c-.164,0-.327.008-.49.024-10.39.988-16.17,33.362-12.621,70.694h0c3.493,36.747,14.959,67.072,25.228,67.072.163,0,.326-.008.489-.022,4.832-.46,9-8.117,11.425-21.009,2.537-13.469,2.962-31.115,1.2-49.686C432.255,152.442,420.789,122.116,410.521,122.116Z" fill="#fff"/>
    </g>
    <g id="Group_47" data-name="Group 47">
      <path id="Path_59" data-name="Path 59" d="M202.165,328.53h0a8.263,8.263,0,0,0,8.737-7.76l.3-5.069a8.264,8.264,0,0,0-7.76-8.737h0a8.264,8.264,0,0,0-8.737,7.761l-.3,5.068A8.263,8.263,0,0,0,202.165,328.53Z" fill="#1b2258"/>
      <path id="Path_60" data-name="Path 60" d="M189.5,376.2a52.513,52.513,0,0,0,1.464,8.561c.386,1.482-.345,3.181-1.522,3.444-4.132.926-9.4-1.16-10.012-4.039-5.629-15.283-3.886-34-1.057-47.488.8-3.837,4.376-6.191,5.994-9.457,1.641-3.312,2.272-7.192,5.636-8.485a5.235,5.235,0,0,1,4.768.549c1.288.817,3.234,1.675,3.85,3.766a7.74,7.74,0,0,1-.34,4.888C187.893,353.058,189.01,367.992,189.5,376.2Z" fill="#1b2258"/>
      <path id="Path_61" data-name="Path 61" d="M75.323,359.9c37.139-11.23,70.769-17.524,109.162-21.727l4.167-41.669A546.087,546.087,0,0,1,85.342,254.52Z" fill="#ff7575"/>
      <g id="Group_44" data-name="Group 44">
        <g id="Group_43" data-name="Group 43" clip-path="url(#clip-path-4)">
          <path id="Path_62" data-name="Path 62" d="M196.154,322.2a20.625,20.625,0,0,0-2.138-.456c-2.991.26-5.97.6-8.921.971-11.755,1.485-23.4,3.726-35.182,5.03a129.173,129.173,0,0,1-16.1.908,72.563,72.563,0,0,1-9.342-.959c-3.237-.472-6.46-1.038-9.667-1.679-12.65-2.528-25.022-6.2-37.421-9.715-5.43-1.541-10.873-3.027-16.348-4.37a521.748,521.748,0,0,1-3.254,68.553c.062-.54,119.845-19.734,131.125-22.455,11.98-2.89,17.175-7.8,17.574-21.379C206.713,328.647,204.268,324.45,196.154,322.2Z" fill="#e66767"/>
        </g>
      </g>
      <path id="Path_64" data-name="Path 64" d="M95.307,308.958C92.541,338.059,83.489,361,75.091,360.2s-12.965-25.037-10.2-54.138,11.819-52.045,20.218-51.247S98.074,279.856,95.307,308.958Z" fill="#c13f4f"/>
      <path id="Path_65" data-name="Path 65" d="M177.775,339.211l1.58.15a22.632,22.632,0,0,0,24.673-20.389h0A22.632,22.632,0,0,0,183.64,294.3l-1.581-.151Z" fill="#c13f4f"/>
      <g id="Group_46" data-name="Group 46">
        <g id="Group_45" data-name="Group 45" clip-path="url(#clip-path-5)">
          <path id="Path_66" data-name="Path 66" d="M76.762,307.287c-.847,8.908,5.344,16.784,13.828,17.59s16.049-5.761,16.9-14.669-5.344-16.784-13.828-17.59S77.609,298.379,76.762,307.287Z" fill="#1b2258"/>
        </g>
      </g>
      <path id="Path_68" data-name="Path 68" d="M75.534,361.226A5.367,5.367,0,0,1,75,361.2c-10.143-.964-13.608-28.838-11.1-55.228,1.347-14.165,4.21-27.344,8.061-37.108,4.055-10.278,8.631-15.485,13.246-15.039s8.129,6.408,10.174,17.266c1.943,10.314,2.272,23.8.925,37.962l-1-.1,1,.1c-1.346,14.165-4.21,27.344-8.062,37.108C84.345,356.037,79.962,361.226,75.534,361.226ZM84.681,255.8c-3.45,0-7.387,4.989-10.862,13.8-3.785,9.594-6.6,22.58-7.931,36.563-2.94,30.924,2.433,52.4,9.3,53.049,3.523.315,7.608-4.688,11.2-13.783,3.785-9.594,6.6-22.579,7.931-36.564h0c1.33-13.983,1.01-27.266-.9-37.4-1.81-9.607-4.871-15.31-8.4-15.646C84.9,255.8,84.792,255.8,84.681,255.8Z" fill="#fff"/>
    </g>
    <circle id="Ellipse_21" data-name="Ellipse 21" cx="24.455" cy="24.455" r="24.455" transform="translate(425.415 406.025) rotate(-69.542)" fill="#fff"/>
    <g id="Group_48" data-name="Group 48">
      <path id="Path_69" data-name="Path 69" d="M424.819,172.582l-.42-.907c4.641-2.148,8.144-3.843,11.533-5.483s6.9-3.339,11.547-5.49l.42.907c-4.64,2.148-8.144,3.844-11.532,5.483S429.468,170.431,424.819,172.582Z" fill="#1b2258"/>
      <rect id="Rectangle_8" data-name="Rectangle 8" width="29.844" height="1" transform="translate(428.885 187.509) rotate(-9.674)" fill="#1b2258"/>
      <rect id="Rectangle_9" data-name="Rectangle 9" width="1" height="23.56" transform="translate(429.131 205.434) rotate(-79.932)" fill="#1b2258"/>
      <path id="Path_70" data-name="Path 70" d="M437.372,225.95c-1.149-.725-3.265-2.078-5.372-3.427-2.072-1.327-4.137-2.648-5.266-3.361l.534-.846c1.13.714,3.2,2.037,5.271,3.365,2.106,1.347,4.219,2.7,5.366,3.423Z" fill="#1b2258"/>
    </g>
    <g id="Group_49" data-name="Group 49">
      <path id="Path_71" data-name="Path 71" d="M75.906,284.467c-4.654-2.154-8.165-3.854-11.561-5.5s-6.885-3.331-11.519-5.477l.42-.908c4.642,2.149,8.146,3.845,11.535,5.484s6.9,3.338,11.545,5.489Z" fill="#1b2258"/>
      <rect id="Rectangle_10" data-name="Rectangle 10" width="1.001" height="29.843" transform="matrix(0.168, -0.986, 0.986, 0.168, 42.252, 295.364)" fill="#1b2258"/>
      <rect id="Rectangle_11" data-name="Rectangle 11" width="23.56" height="1" transform="translate(48.222 320.453) rotate(-10.07)" fill="#1b2258"/>
      <path id="Path_72" data-name="Path 72" d="M63.353,337.835l-.534-.846c1.129-.713,3.193-2.033,5.264-3.359,2.109-1.35,4.225-2.7,5.374-3.429l.534.846c-1.148.724-3.262,2.077-5.368,3.426C66.549,335.8,64.483,337.121,63.353,337.835Z" fill="#1b2258"/>
    </g>
    <path id="Path_73" data-name="Path 73" d="M430.354,317.21a6.156,6.156,0,1,1,6.156-6.155A6.163,6.163,0,0,1,430.354,317.21Zm0-11.311a5.156,5.156,0,1,0,5.156,5.156A5.162,5.162,0,0,0,430.354,305.9Z" fill="#1b2258"/>
  </g>
</svg>
