<svg xmlns="http://www.w3.org/2000/svg" xmlns:xlink="http://www.w3.org/1999/xlink" width="452.18" height="384.324" viewBox="0 0 452.18 384.324">
  <defs>
    <linearGradient id="linear-gradient" x1="0.5" y1="-0.197" x2="0.5" y2="0.899" gradientUnits="objectBoundingBox">
      <stop offset="0" stop-color="#fff"/>
      <stop offset="1"/>
    </linearGradient>
    <linearGradient id="linear-gradient-2" x1="0.5" y1="0.126" x2="0.5" y2="0.873" xlink:href="#linear-gradient"/>
    <clipPath id="clip-path">
      <path id="Path_16" data-name="Path 16" d="M79.389,386.559c2.53-5.512,5.2-11.132,5.9-17.156a20.182,20.182,0,0,0-4.345-14.894c-3.559-4.369-8.848-7.094-12.292-11.555a19.2,19.2,0,0,1-2.012-19.709c2.723-5.58,9.821-9.717,15.216-6.645,5.022,2.859,5.616,9.784,8.827,14.588,4.144,6.2,12.3,8.36,17.5,13.706a19.424,19.424,0,0,1,5.011,17.152c-.836,4.06-3,8.033-2.27,12.113,1.386,7.737,12.009,10.776,14.083,18.358,1.322,4.832-1.485,10.042-5.522,13.008s-9.076,4.156-13.98,5.182c-8.01,1.674-17.252,2.814-23.578-2.377C81.924,408.33,72.057,402.531,79.389,386.559Z" fill="none"/>
    </clipPath>
    <linearGradient id="linear-gradient-3" x1="0.464" y1="0.047" x2="0.549" y2="1.098" xlink:href="#linear-gradient"/>
    <clipPath id="clip-path-2">
      <path id="Path_22" data-name="Path 22" d="M67.2,394.336c-3.015-1.58-4.819-4.8-6.09-7.956s-2.083-6.5-3.614-9.543a22.353,22.353,0,0,0-8-8.806c-4.236-2.669-9.248-3.838-13.647-6.228s-8.413-6.725-7.992-11.714c.449-5.317,5.962-9.072,11.291-9.36s10.425,2.023,15.172,4.46a199.543,199.543,0,0,1,19.131,11.176,36.62,36.62,0,0,1,7.876,6.468c6.968,8.179,6.207,21.005.513,30.117C81.838,392.95,74.038,397.921,67.2,394.336Z" fill="none"/>
    </clipPath>
    <linearGradient id="linear-gradient-4" x1="0.035" y1="0.044" x2="1.234" y2="1.059" xlink:href="#linear-gradient"/>
    <clipPath id="clip-path-3">
      <rect id="Rectangle_18" data-name="Rectangle 18" width="59.684" height="139.859" transform="translate(146.086 259.474)" fill="none"/>
    </clipPath>
    <clipPath id="clip-path-4">
      <rect id="Rectangle_21" data-name="Rectangle 21" width="130.761" height="87.738" transform="translate(243.649 260.414)" fill="none"/>
    </clipPath>
    <clipPath id="clip-path-5">
      <path id="Path_32" data-name="Path 32" d="M397.148,386.559c-2.53-5.512-5.2-11.132-5.9-17.156a20.177,20.177,0,0,1,4.344-14.894c3.559-4.369,8.848-7.094,12.292-11.555a19.2,19.2,0,0,0,2.012-19.709c-2.723-5.58-9.821-9.717-15.216-6.645-5.022,2.859-5.616,9.784-8.827,14.588-4.144,6.2-12.3,8.36-17.5,13.706a19.428,19.428,0,0,0-5.012,17.152c.836,4.06,3,8.033,2.271,12.113-1.387,7.737-12.01,10.776-14.084,18.358-1.321,4.832,1.485,10.042,5.522,13.008s9.076,4.156,13.98,5.182c8.01,1.674,17.252,2.814,23.578-2.377C394.613,408.33,404.48,402.531,397.148,386.559Z" fill="none"/>
    </clipPath>
    <linearGradient id="linear-gradient-5" x1="0.745" y1="-0.027" x2="0.232" y2="1.269" xlink:href="#linear-gradient"/>
    <clipPath id="clip-path-6">
      <path id="Path_38" data-name="Path 38" d="M409.34,394.336c3.015-1.58,4.82-4.8,6.091-7.956s2.082-6.5,3.613-9.543a22.361,22.361,0,0,1,8-8.806c4.236-2.669,9.248-3.838,13.648-6.228s8.413-6.725,7.991-11.714c-.448-5.317-5.962-9.072-11.291-9.36s-10.425,2.023-15.172,4.46a199.542,199.542,0,0,0-19.131,11.176,36.62,36.62,0,0,0-7.876,6.468c-6.968,8.179-6.206,21.005-.512,30.117C394.7,392.95,402.5,397.921,409.34,394.336Z" fill="none"/>
    </clipPath>
    <linearGradient id="linear-gradient-6" x1="1.043" y1="-0.644" x2="-0.097" y2="1.527" xlink:href="#linear-gradient"/>
  </defs>
  <g id="OBJECTS" transform="translate(-27.27 -61.366)">
    <g id="Group_24" data-name="Group 24">
      <path id="Path_1" data-name="Path 1" d="M101.623,405.269c-27.812-24.047-102-87.277-63.509-135.933,8.784-11.1,26.843-10.721,36.389-21.179,12.005-13.152,5.94-33.779,1.35-50.985-5.591-20.958-7.778-43.724-.1-64.008s27.211-37.152,48.888-36.377c12.759.456,24.489,6.638,36.12,11.9,18.907,8.558,39.377,15.086,60.083,13.679,26.957-1.831,51.426-16.822,78.179-20.6,34.4-4.859,69.9,9.987,94.315,34.705s38.514,58.3,44.276,92.56c5.783,34.39,3.523,70.468-9.184,102.944s-36.237,61.094-67.028,77.466Z" fill="#b8ebf4"/>
      <path id="Path_2" data-name="Path 2" d="M101.623,405.269c-27.812-24.047-102-87.277-63.509-135.933,8.784-11.1,26.843-10.721,36.389-21.179,12.005-13.152,5.94-33.779,1.35-50.985-5.591-20.958-7.778-43.724-.1-64.008s27.211-37.152,48.888-36.377c12.759.456,24.489,6.638,36.12,11.9,18.907,8.558,39.377,15.086,60.083,13.679,26.957-1.831,51.426-16.822,78.179-20.6,34.4-4.859,69.9,9.987,94.315,34.705s38.514,58.3,44.276,92.56c5.783,34.39,3.523,70.468-9.184,102.944s-36.237,61.094-67.028,77.466Z" fill="url(#linear-gradient)" style="mix-blend-mode: overlay;isolation: isolate"/>
      <path id="Path_3" data-name="Path 3" d="M74.242,410.937c-12.58-.188-41.773,3.065-40.558,8.147,1.146,4.8,21.639,6.924,29.517,7.344,34.67,1.852,63.818,3.431,97.978,4.345,4.171.111,5.845,3.969,2.551,5.882h0c-2.844,1.651-5.446,4.611-2.139,5.71,16.037,5.329,89.7,3.064,127.085,1.33,45.285-2.1,151.449-7.415,159.477-21.594,2.67-4.718-4.74-8.224-10.959-9.56a186.293,186.293,0,0,0-45.583-3.947Z" fill="#b2c8cc" opacity="0.6"/>
      <rect id="Rectangle_2" data-name="Rectangle 2" width="264.944" height="252.247" transform="translate(109.466 156.225)" fill="#ffbe60"/>
      <rect id="Rectangle_3" data-name="Rectangle 3" width="264.944" height="252.247" transform="translate(109.466 156.225)" fill="url(#linear-gradient-2)" style="mix-blend-mode: overlay;isolation: isolate"/>
      <rect id="Rectangle_4" data-name="Rectangle 4" width="264.944" height="18.279" transform="translate(109.466 390.193)" fill="#ffe2bb"/>
      <rect id="Rectangle_5" data-name="Rectangle 5" width="264.944" height="77.913" transform="translate(109.466 156.225)" fill="#f29d2c"/>
      <g id="Group_3" data-name="Group 3">
        <g id="Group_2" data-name="Group 2">
          <g id="Group_1" data-name="Group 1">
            <path id="Path_4" data-name="Path 4" d="M93.121,199.18c-.806,13.374,11.106,24.259,24.806,24.259s24.806-10.861,24.806-24.259-11.106-24.259-24.806-24.259S93.934,185.673,93.121,199.18Z" fill="#dfdfdf"/>
            <ellipse id="Ellipse_1" data-name="Ellipse 1" cx="24.806" cy="24.259" rx="24.806" ry="24.259" transform="translate(142.733 174.921)" fill="#e33b38"/>
            <ellipse id="Ellipse_2" data-name="Ellipse 2" cx="24.806" cy="24.259" rx="24.806" ry="24.259" transform="translate(192.345 174.921)" fill="#dfdfdf"/>
            <ellipse id="Ellipse_3" data-name="Ellipse 3" cx="24.806" cy="24.259" rx="24.806" ry="24.259" transform="translate(241.957 174.921)" fill="#e33b38"/>
            <ellipse id="Ellipse_4" data-name="Ellipse 4" cx="24.806" cy="24.259" rx="24.806" ry="24.259" transform="translate(291.569 174.921)" fill="#dfdfdf"/>
            <ellipse id="Ellipse_5" data-name="Ellipse 5" cx="24.806" cy="24.259" rx="24.806" ry="24.259" transform="translate(341.181 174.921)" fill="#e33b38"/>
          </g>
          <path id="Path_5" data-name="Path 5" d="M390.794,199.18H93.121l7.207-44.326H385.586Z" fill="#f25757"/>
          <path id="Path_6" data-name="Path 6" d="M93.121,199.18l7.207-44.326h49.186l-6.78,44.326Z" fill="#fff"/>
          <path id="Path_7" data-name="Path 7" d="M241.957,199.18V154.854h-45l-4.617,44.326Z" fill="#fff"/>
          <path id="Path_8" data-name="Path 8" d="M291.569,199.18V154.854h45l4.617,44.326Z" fill="#fff"/>
        </g>
        <rect id="Rectangle_6" data-name="Rectangle 6" width="286.056" height="14.469" transform="translate(99.78 142.974)" fill="#e33b38"/>
        <rect id="Rectangle_7" data-name="Rectangle 7" width="286.056" height="3.685" transform="translate(99.78 142.974)" fill="#f95d5d"/>
        <rect id="Rectangle_8" data-name="Rectangle 8" width="286.056" height="0.921" transform="translate(99.78 142.974)" fill="#fff"/>
      </g>
      <rect id="Rectangle_9" data-name="Rectangle 9" width="144.47" height="110.828" transform="translate(229.94 253.102)" fill="#fff"/>
      <rect id="Rectangle_10" data-name="Rectangle 10" width="80.181" height="149.429" transform="translate(132.272 253.102)" fill="#fff"/>
      <g id="Group_5" data-name="Group 5">
        <g id="Group_4" data-name="Group 4" clip-path="url(#clip-path)">
          <path id="Path_9" data-name="Path 9" d="M79.389,386.559c2.53-5.512,5.2-11.132,5.9-17.156a20.182,20.182,0,0,0-4.345-14.894c-3.559-4.369-8.848-7.094-12.292-11.555a19.2,19.2,0,0,1-2.012-19.709c2.723-5.58,9.821-9.717,15.216-6.645,5.022,2.859,5.616,9.784,8.827,14.588,4.144,6.2,12.3,8.36,17.5,13.706a19.424,19.424,0,0,1,5.011,17.152c-.836,4.06-3,8.033-2.27,12.113,1.386,7.737,12.009,10.776,14.083,18.358,1.322,4.832-1.485,10.042-5.522,13.008s-9.076,4.156-13.98,5.182c-8.01,1.674-17.252,2.814-23.578-2.377C81.924,408.33,72.057,402.531,79.389,386.559Z" fill="#c7bd3a"/>
          <path id="Path_10" data-name="Path 10" d="M79.389,386.559c2.53-5.512,5.2-11.132,5.9-17.156a20.182,20.182,0,0,0-4.345-14.894c-3.559-4.369-8.848-7.094-12.292-11.555a19.2,19.2,0,0,1-2.012-19.709c2.723-5.58,9.821-9.717,15.216-6.645,5.022,2.859,5.616,9.784,8.827,14.588,4.144,6.2,12.3,8.36,17.5,13.706a19.424,19.424,0,0,1,5.011,17.152c-.836,4.06-3,8.033-2.27,12.113,1.386,7.737,12.009,10.776,14.083,18.358,1.322,4.832-1.485,10.042-5.522,13.008s-9.076,4.156-13.98,5.182c-8.01,1.674-17.252,2.814-23.578-2.377C81.924,408.33,72.057,402.531,79.389,386.559Z" fill="url(#linear-gradient-3)" style="mix-blend-mode: overlay;isolation: isolate"/>
          <path id="Path_11" data-name="Path 11" d="M73.433,314.186c.673,14.036,12.41,23.421,20.166,33.908,4.251,5.749,7.263,12.01,7.417,19.27.081,3.815-.376,7.613-.54,11.42a62.363,62.363,0,0,0,.565,11.449,65,65,0,0,0,3.042,12.235c1.278,3.675,2.807,8.336-.093,11.675-.592.682.4,1.684,1,1a9.734,9.734,0,0,0,1.837-8.306c-.674-3.746-2.359-7.28-3.267-10.979a60.18,60.18,0,0,1-1.683-11.891c-.16-3.965.2-7.9.433-11.85a38.11,38.11,0,0,0-.675-11.243,33.2,33.2,0,0,0-3.948-9.237c-3.536-5.861-8.313-10.8-12.639-16.055-5.053-6.142-9.809-13.2-10.2-21.393-.043-.9-1.454-.908-1.41,0Z" fill="#ada028"/>
          <path id="Path_12" data-name="Path 12" d="M61.413,329.759a59.5,59.5,0,0,0,28.236,13.554c.887.162,1.268-1.2.375-1.36A58.123,58.123,0,0,1,62.41,328.761c-.683-.591-1.685.4-1,1Z" fill="#ada028"/>
          <path id="Path_13" data-name="Path 13" d="M92.737,345.079a28.436,28.436,0,0,0-2.161-19.412c-.4-.812-1.62-.1-1.217.712A26.906,26.906,0,0,1,91.377,344.7c-.217.882,1.143,1.258,1.36.375Z" fill="#ada028"/>
          <path id="Path_14" data-name="Path 14" d="M82.076,372.855c1.17,4.742,4.119,8.69,7.523,12.092,3.943,3.94,8.369,7.422,12.605,11.036.687.586,1.689-.407,1-1-4.055-3.46-8.262-6.8-12.086-10.525-3.452-3.359-6.5-7.222-7.679-11.981-.217-.881-1.577-.507-1.36.375Z" fill="#ada028"/>
          <path id="Path_15" data-name="Path 15" d="M104.526,399.333c-.317-11.441,11.12-20.036,8.877-31.792-.17-.89-1.53-.513-1.36.375,1.122,5.882-1.722,11.472-4.322,16.553-2.38,4.65-4.753,9.511-4.605,14.864a.705.705,0,0,0,1.41,0Z" fill="#ada028"/>
        </g>
      </g>
      <g id="Group_8" data-name="Group 8">
        <g id="Group_7" data-name="Group 7">
          <g id="Group_6" data-name="Group 6" clip-path="url(#clip-path-2)">
            <path id="Path_17" data-name="Path 17" d="M67.2,394.336c-3.015-1.58-4.819-4.8-6.09-7.956s-2.083-6.5-3.614-9.543a22.353,22.353,0,0,0-8-8.806c-4.236-2.669-9.248-3.838-13.647-6.228s-8.413-6.725-7.992-11.714c.449-5.317,5.962-9.072,11.291-9.36s10.425,2.023,15.172,4.46a199.543,199.543,0,0,1,19.131,11.176,36.62,36.62,0,0,1,7.876,6.468c6.968,8.179,6.207,21.005.513,30.117C81.838,392.95,74.038,397.921,67.2,394.336Z" fill="#aac037"/>
            <path id="Path_18" data-name="Path 18" d="M67.2,394.336c-3.015-1.58-4.819-4.8-6.09-7.956s-2.083-6.5-3.614-9.543a22.353,22.353,0,0,0-8-8.806c-4.236-2.669-9.248-3.838-13.647-6.228s-8.413-6.725-7.992-11.714c.449-5.317,5.962-9.072,11.291-9.36s10.425,2.023,15.172,4.46a199.543,199.543,0,0,1,19.131,11.176,36.62,36.62,0,0,1,7.876,6.468c6.968,8.179,6.207,21.005.513,30.117C81.838,392.95,74.038,397.921,67.2,394.336Z" fill="url(#linear-gradient-4)" style="mix-blend-mode: overlay;isolation: isolate"/>
            <path id="Path_19" data-name="Path 19" d="M28.1,346.038c13.113,3.372,25.505,9.429,35.132,19.092,7.745,7.774,13.266,17.384,17.3,27.526,2.085,5.237,3.806,10.607,5.424,16a.706.706,0,0,0,1.36-.375c-3-10.007-6.417-19.964-11.653-29.052a70.277,70.277,0,0,0-24.412-25.257,84.6,84.6,0,0,0-22.78-9.3.706.706,0,0,0-.375,1.36Z" fill="#8f9e1e"/>
            <path id="Path_20" data-name="Path 20" d="M63.05,343.73c3.984,7.142,8.872,13.786,12.276,21.246,3.681,8.069,4.819,16.848,4.981,25.643a.353.353,0,0,0,.705,0c-.159-8.617-1.236-17.238-4.718-25.194-3.406-7.786-8.51-14.656-12.635-22.051-.221-.4-.83-.041-.609.356Z" fill="#8f9e1e"/>
            <path id="Path_21" data-name="Path 21" d="M44.715,371.375c7.192,1.666,14.535,3.372,20.943,7.19a36.375,36.375,0,0,1,7.849,6.52,33.748,33.748,0,0,0,6.985,6.207.352.352,0,0,0,.356-.608c-2.9-1.734-5.1-4.272-7.4-6.689a35.075,35.075,0,0,0-7.806-6.259c-6.376-3.7-13.624-5.393-20.737-7.041-.442-.1-.63.577-.188.68Z" fill="#8f9e1e"/>
          </g>
        </g>
        <path id="Path_23" data-name="Path 23" d="M71.513,375.238c6.825,10.2,10.94,21.745,14.443,33.422a.706.706,0,0,0,1.36-.375c-3.536-11.786-7.7-23.467-14.585-33.759-.5-.75-1.725-.045-1.218.712Z" fill="#8f9e1e"/>
      </g>
      <rect id="Rectangle_11" data-name="Rectangle 11" width="67.331" height="143.058" transform="translate(138.439 259.474)" fill="#054651"/>
      <rect id="Rectangle_12" data-name="Rectangle 12" width="137.615" height="97.335" transform="translate(236.795 260.414)" fill="#054651"/>
      <rect id="Rectangle_13" data-name="Rectangle 13" width="144.47" height="8.898" transform="translate(229.94 363.93)" fill="#d87c0e"/>
      <rect id="Rectangle_14" data-name="Rectangle 14" width="130.761" height="87.738" transform="translate(243.649 260.414)" fill="#0e5768"/>
      <rect id="Rectangle_15" data-name="Rectangle 15" width="59.684" height="139.859" transform="translate(146.086 259.474)" fill="#0e5768"/>
      <g id="Group_10" data-name="Group 10">
        <g id="Group_9" data-name="Group 9" clip-path="url(#clip-path-3)">
          <rect id="Rectangle_16" data-name="Rectangle 16" width="25.063" height="138.505" transform="translate(190.949 240.264) rotate(34.8)" fill="#329bad"/>
          <rect id="Rectangle_17" data-name="Rectangle 17" width="6.091" height="138.505" transform="matrix(0.821, 0.571, -0.571, 0.821, 217.486, 260.414)" fill="#329bad"/>
        </g>
      </g>
      <g id="Group_12" data-name="Group 12">
        <g id="Group_11" data-name="Group 11" clip-path="url(#clip-path-4)">
          <rect id="Rectangle_19" data-name="Rectangle 19" width="25.063" height="138.505" transform="matrix(0.821, 0.571, -0.571, 0.821, 320.803, 242.797)" fill="#329bad"/>
          <rect id="Rectangle_20" data-name="Rectangle 20" width="6.091" height="138.505" transform="translate(365.254 242.797) rotate(34.8)" fill="#329bad"/>
        </g>
      </g>
      <path id="Path_24" data-name="Path 24" d="M99.78,157.442H385.835s-55.361,16.982-149.04,17.479S99.78,157.442,99.78,157.442Z" fill="#fff" style="mix-blend-mode: overlay;isolation: isolate"/>
      <g id="Group_14" data-name="Group 14">
        <g id="Group_13" data-name="Group 13" clip-path="url(#clip-path-5)">
          <path id="Path_25" data-name="Path 25" d="M397.148,386.559c-2.53-5.512-5.2-11.132-5.9-17.156a20.177,20.177,0,0,1,4.344-14.894c3.559-4.369,8.848-7.094,12.292-11.555a19.2,19.2,0,0,0,2.012-19.709c-2.723-5.58-9.821-9.717-15.216-6.645-5.022,2.859-5.616,9.784-8.827,14.588-4.144,6.2-12.3,8.36-17.5,13.706a19.428,19.428,0,0,0-5.012,17.152c.836,4.06,3,8.033,2.271,12.113-1.387,7.737-12.01,10.776-14.084,18.358-1.321,4.832,1.485,10.042,5.522,13.008s9.076,4.156,13.98,5.182c8.01,1.674,17.252,2.814,23.578-2.377C394.613,408.33,404.48,402.531,397.148,386.559Z" fill="#c7bd3a"/>
          <path id="Path_26" data-name="Path 26" d="M397.148,386.559c-2.53-5.512-5.2-11.132-5.9-17.156a20.177,20.177,0,0,1,4.344-14.894c3.559-4.369,8.848-7.094,12.292-11.555a19.2,19.2,0,0,0,2.012-19.709c-2.723-5.58-9.821-9.717-15.216-6.645-5.022,2.859-5.616,9.784-8.827,14.588-4.144,6.2-12.3,8.36-17.5,13.706a19.428,19.428,0,0,0-5.012,17.152c.836,4.06,3,8.033,2.271,12.113-1.387,7.737-12.01,10.776-14.084,18.358-1.321,4.832,1.485,10.042,5.522,13.008s9.076,4.156,13.98,5.182c8.01,1.674,17.252,2.814,23.578-2.377C394.613,408.33,404.48,402.531,397.148,386.559Z" fill="url(#linear-gradient-5)" style="mix-blend-mode: overlay;isolation: isolate"/>
          <path id="Path_27" data-name="Path 27" d="M401.694,314.186c-.7,14.539-13.831,24.063-21.4,35.211a38.839,38.839,0,0,0-4.574,8.767,30.806,30.806,0,0,0-1.606,10.86c.06,3.968.56,7.916.6,11.886a60.077,60.077,0,0,1-1.076,11.961,61.068,61.068,0,0,1-1.592,6.381c-.625,2.028-1.43,4-1.98,6.053-.9,3.362-.9,7.081,1.489,9.835.6.687,1.59-.314,1-1-2.556-2.942-1.649-7.055-.534-10.4a81.57,81.57,0,0,0,3.024-10.731,62.118,62.118,0,0,0,1.086-11.4c.006-3.811-.44-7.6-.574-11.4a31.35,31.35,0,0,1,1.394-11.292,36.966,36.966,0,0,1,4.564-8.81c3.867-5.693,8.763-10.571,12.957-16.009,4.486-5.816,8.281-12.413,8.64-19.914.044-.907-1.367-.9-1.41,0Z" fill="#ada028"/>
          <path id="Path_28" data-name="Path 28" d="M414.127,328.761a58.123,58.123,0,0,1-27.614,13.192c-.891.163-.513,1.522.375,1.36a59.5,59.5,0,0,0,28.236-13.554c.688-.6-.314-1.589-1-1Z" fill="#ada028"/>
          <path id="Path_29" data-name="Path 29" d="M385.161,344.7a26.9,26.9,0,0,1,2.017-18.325c.4-.81-.813-1.525-1.217-.712a28.43,28.43,0,0,0-2.16,19.412c.216.881,1.576.508,1.36-.375Z" fill="#ada028"/>
          <path id="Path_30" data-name="Path 30" d="M393.1,372.48c-1.174,4.759-4.227,8.622-7.679,11.981-3.823,3.72-8.031,7.065-12.086,10.525-.692.59.31,1.584,1,1,4.237-3.614,8.662-7.1,12.6-11.036,3.4-3.4,6.353-7.35,7.523-12.092.217-.881-1.143-1.257-1.36-.375Z" fill="#ada028"/>
          <path id="Path_31" data-name="Path 31" d="M373.421,399.333c.149-5.353-2.225-10.214-4.6-14.864-2.6-5.081-5.444-10.671-4.322-16.553.17-.887-1.189-1.267-1.36-.375-2.243,11.756,9.194,20.351,8.877,31.792a.705.705,0,0,0,1.41,0Z" fill="#ada028"/>
        </g>
      </g>
      <g id="Group_17" data-name="Group 17">
        <g id="Group_16" data-name="Group 16">
          <g id="Group_15" data-name="Group 15" clip-path="url(#clip-path-6)">
            <path id="Path_33" data-name="Path 33" d="M409.34,394.336c3.015-1.58,4.82-4.8,6.091-7.956s2.082-6.5,3.613-9.543a22.361,22.361,0,0,1,8-8.806c4.236-2.669,9.248-3.838,13.648-6.228s8.413-6.725,7.991-11.714c-.448-5.317-5.962-9.072-11.291-9.36s-10.425,2.023-15.172,4.46a199.542,199.542,0,0,0-19.131,11.176,36.62,36.62,0,0,0-7.876,6.468c-6.968,8.179-6.206,21.005-.512,30.117C394.7,392.95,402.5,397.921,409.34,394.336Z" fill="#aac037"/>
            <path id="Path_34" data-name="Path 34" d="M409.34,394.336c3.015-1.58,4.82-4.8,6.091-7.956s2.082-6.5,3.613-9.543a22.361,22.361,0,0,1,8-8.806c4.236-2.669,9.248-3.838,13.648-6.228s8.413-6.725,7.991-11.714c-.448-5.317-5.962-9.072-11.291-9.36s-10.425,2.023-15.172,4.46a199.542,199.542,0,0,0-19.131,11.176,36.62,36.62,0,0,0-7.876,6.468c-6.968,8.179-6.206,21.005-.512,30.117C394.7,392.95,402.5,397.921,409.34,394.336Z" fill="url(#linear-gradient-6)" style="mix-blend-mode: overlay;isolation: isolate"/>
            <path id="Path_35" data-name="Path 35" d="M448.067,344.678c-13.241,3.4-25.779,9.531-35.542,19.242-7.936,7.894-13.577,17.657-17.73,27.986-2.153,5.355-3.917,10.853-5.574,16.379a.706.706,0,0,0,1.36.375c2.94-9.806,6.272-19.551,11.371-28.472a68.915,68.915,0,0,1,23.9-24.907,83.126,83.126,0,0,1,22.587-9.243.706.706,0,0,0-.374-1.36Z" fill="#8f9e1e"/>
            <path id="Path_36" data-name="Path 36" d="M412.878,343.374c-4.125,7.4-9.228,14.265-12.635,22.051-3.482,7.956-4.559,16.577-4.718,25.194a.353.353,0,0,0,.706,0c.161-8.795,1.3-17.573,4.98-25.643,3.4-7.46,8.293-14.1,12.276-21.246.221-.4-.388-.753-.609-.356Z" fill="#8f9e1e"/>
            <path id="Path_37" data-name="Path 37" d="M431.635,370.7c-7.113,1.648-14.362,3.344-20.738,7.041a34.617,34.617,0,0,0-7.665,6.112c-2.356,2.461-4.588,5.067-7.543,6.836a.352.352,0,0,0,.356.608,33.75,33.75,0,0,0,6.985-6.207,36.428,36.428,0,0,1,7.849-6.52c6.408-3.818,13.751-5.524,20.943-7.19.442-.1.255-.783-.187-.68Z" fill="#8f9e1e"/>
          </g>
        </g>
        <path id="Path_39" data-name="Path 39" d="M403.807,374.526c-6.889,10.292-11.05,21.973-14.586,33.759a.706.706,0,0,0,1.36.375c3.5-11.677,7.618-23.225,14.443-33.422.506-.756-.715-1.463-1.217-.712Z" fill="#8f9e1e"/>
      </g>
      <rect id="Rectangle_22" data-name="Rectangle 22" width="346.036" height="11.881" transform="translate(68.92 402.531)" fill="#282f39"/>
      <rect id="Rectangle_23" data-name="Rectangle 23" width="346.036" height="3.808" transform="translate(68.92 402.531)" fill="#4d555e"/>
      <path id="Path_40" data-name="Path 40" d="M395.92,250.015c-2.675-1.334-5.434-2.735-7.325-5.05s-2.676-5.819-1.027-8.312c1.367-2.067,3.975-2.916,6.431-3.249a24.929,24.929,0,0,1,17.616,4.351,30.843,30.843,0,0,1,11.351-27.388c3.871-3.04,8.653-5.146,13.574-5.024s9.911,2.762,12.056,7.192c1.36,2.808,1.509,6.043,1.375,9.16a56.7,56.7,0,0,1-3.773,18.017c11.2-3.05,30.06-4.8,32.99,6.425,5.9,22.626-89.691,34.354-95.632,13.9C381.99,254.644,395.92,250.015,395.92,250.015Z" fill="#f1f9fb"/>
      <path id="Path_41" data-name="Path 41" d="M45.908,291.354a14.622,14.622,0,0,1-5.029-3.467c-1.3-1.59-1.837-3.995-.705-5.707.938-1.419,2.729-2,4.414-2.23a17.112,17.112,0,0,1,12.094,2.988,21.175,21.175,0,0,1,7.793-18.8,14.827,14.827,0,0,1,9.319-3.45,9.465,9.465,0,0,1,8.277,4.938,13.082,13.082,0,0,1,.944,6.289,38.913,38.913,0,0,1-2.591,12.369c7.688-2.094,20.637-3.3,22.649,4.411,4.052,15.533-61.575,23.585-65.654,9.541C36.344,294.532,45.908,291.354,45.908,291.354Z" fill="#f1f9fb"/>
      <path id="Path_42" data-name="Path 42" d="M345.426,115.381a12.843,12.843,0,0,1-4.416-3.045,4.384,4.384,0,0,1-.619-5.011,5.346,5.346,0,0,1,3.877-1.959,15.03,15.03,0,0,1,10.62,2.624,18.594,18.594,0,0,1,6.844-16.512,13.012,13.012,0,0,1,8.183-3.029,8.308,8.308,0,0,1,7.268,4.336,11.486,11.486,0,0,1,.829,5.522,34.191,34.191,0,0,1-2.275,10.862c6.751-1.839,18.123-2.9,19.889,3.874,3.559,13.64-54.072,20.711-57.654,8.378C337.028,118.171,345.426,115.381,345.426,115.381Z" fill="#b8ebf4"/>
      <path id="Path_43" data-name="Path 43" d="M403.62,252.446a16.678,16.678,0,0,1-5.738-3.956c-1.481-1.813-2.1-4.557-.8-6.51,1.071-1.619,3.114-2.284,5.037-2.545a19.528,19.528,0,0,1,13.8,3.409,24.158,24.158,0,0,1,8.891-21.452,16.913,16.913,0,0,1,10.632-3.935c3.854.1,7.763,2.163,9.443,5.633a14.932,14.932,0,0,1,1.077,7.175A44.421,44.421,0,0,1,443,244.376c8.77-2.389,23.544-3.763,25.839,5.033,4.623,17.721-70.249,26.907-74.9,10.885C392.709,256.071,403.62,252.446,403.62,252.446Z" fill="#b8ebf4"/>
      <path id="Path_44" data-name="Path 44" d="M62.258,79.9a8.842,8.842,0,0,1-3.039-2.1,3.018,3.018,0,0,1-.426-3.449,3.676,3.676,0,0,1,2.668-1.348,10.342,10.342,0,0,1,7.309,1.806,12.8,12.8,0,0,1,4.709-11.364,8.958,8.958,0,0,1,5.632-2.084,5.718,5.718,0,0,1,5,2.984,7.9,7.9,0,0,1,.57,3.8,23.53,23.53,0,0,1-1.565,7.475c4.646-1.265,12.472-1.993,13.687,2.666,2.449,9.388-37.212,14.253-39.677,5.766C56.478,81.822,62.258,79.9,62.258,79.9Z" fill="#b8ebf4"/>
      <g id="Group_21" data-name="Group 21">
        <path id="Path_45" data-name="Path 45" d="M309.03,286.642a2.113,2.113,0,1,1-2.114-2.113A2.114,2.114,0,0,1,309.03,286.642Z" fill="#fff"/>
        <g id="Group_20" data-name="Group 20">
          <rect id="Rectangle_24" data-name="Rectangle 24" width="65.575" height="35.948" rx="3.065" transform="translate(273.466 294.315)" fill="#fff"/>
          <g id="Group_19" data-name="Group 19">
            <g id="Group_18" data-name="Group 18">
              <text id="we_are" data-name="we are" transform="translate(306.221 307.937)" fill="#054651" font-size="11.745" font-family="BebasNeueBold, Bebas Neue"><tspan x="-13.29" y="0">we are</tspan></text>
              <text id="OPEN" transform="translate(306.221 326.354)" fill="#054651" font-size="23.209" font-family="BebasNeueBold, Bebas Neue" letter-spacing="0.02em"><tspan x="-18.95" y="0">OPEN</tspan></text>
            </g>
          </g>
        </g>
        <path id="Path_46" data-name="Path 46" d="M321.3,297.564H291.347l15.581-11.515Zm-27.1-.939h24.424l-11.72-9.391Z" fill="#fff"/>
      </g>
      <rect id="Rectangle_25" data-name="Rectangle 25" width="32.087" height="11.245" transform="translate(333.901 237.973)" fill="#f29d2c"/>
      <rect id="Rectangle_26" data-name="Rectangle 26" width="32.087" height="11.245" transform="translate(115.086 238.34)" fill="#f29d2c"/>
      <rect id="Rectangle_27" data-name="Rectangle 27" width="16.303" height="7.312" transform="translate(304.803 240.307)" fill="#f29d2c"/>
      <rect id="Rectangle_28" data-name="Rectangle 28" width="16.303" height="7.312" transform="translate(219.349 377.855)" fill="#d87c0e"/>
      <rect id="Rectangle_29" data-name="Rectangle 29" width="16.303" height="7.312" transform="translate(265.315 377.855)" fill="#d87c0e"/>
      <g id="Group_23" data-name="Group 23">
        <g id="Group_22" data-name="Group 22">
          <rect id="Rectangle_30" data-name="Rectangle 30" width="115.701" height="35.621" transform="translate(186.474 102.935)" fill="#fff"/>
          <path id="Path_47" data-name="Path 47" d="M303.675,140.055h-118.7v-38.62h118.7Zm-115.7-3h112.7v-32.62h-112.7Z" fill="#329bad"/>
        </g>
        <text id="SHOP" transform="translate(244.592 131.008)" fill="#054651" font-size="28.212" font-family="BebasNeueBold, Bebas Neue" letter-spacing="0.2em"><tspan x="-30.736" y="0">SHOP</tspan></text>
      </g>
    </g>
  </g>
</svg>
