<svg xmlns="http://www.w3.org/2000/svg" xmlns:xlink="http://www.w3.org/1999/xlink" width="478.289" height="361.556" viewBox="0 0 478.289 361.556">
  <defs>
    <clipPath id="clip-path">
      <rect id="Rectangle_22" data-name="Rectangle 22" width="119.006" height="123.121" transform="translate(301.731 250.538)" fill="none"/>
    </clipPath>
    <clipPath id="clip-path-2">
      <rect id="Rectangle_25" data-name="Rectangle 25" width="119.006" height="123.121" transform="translate(87.243 250.538)" fill="none"/>
    </clipPath>
  </defs>
  <g id="OBJECTS" transform="translate(-12.116 -62.84)">
    <path id="Path_1" data-name="Path 1" d="M69.867,396.958H467.051c-22.349-30.774-23.18-75.281-7.112-109.753,6.9-14.814,17.337-28.488,19.537-44.683,3.693-27.186-16.624-51.387-36.993-69.768A501.793,501.793,0,0,0,285.8,76.8c-23.2-8.861-47.87-16.077-72.555-13.388s-49.429,17.3-57.709,40.716c-3.769,10.658-3.955,22.315-7.649,33-8.93,25.826-35.611,40.323-59.951,52.742s-50.793,27.826-58.373,54.079c-7.588,26.279,6.6,53.406,20.252,77.109S77.688,370.748,69.867,396.958Z" fill="#d8fff3"/>
    <g id="Group_2" data-name="Group 2">
      <path id="Path_2" data-name="Path 2" d="M292.229,108.8l-3.59-6.248c-.157-.274-.736-.11-.725.207l.23,7.2a.321.321,0,0,1-.17.267l-6.117,3.829c-.285.178-.194.5.143.5l7.216.042a.32.32,0,0,1,.285.138l3.589,6.247c.158.275.736.11.726-.206l-.231-7.2a.318.318,0,0,1,.17-.267l6.117-3.829c.285-.178.194-.5-.142-.5l-7.217-.042A.321.321,0,0,1,292.229,108.8Z" fill="#fff"/>
      <path id="Path_3" data-name="Path 3" d="M398.335,115.525l-.034-4.89c0-.215-.4-.311-.5-.121l-2.269,4.332a.217.217,0,0,1-.19.1l-4.893.219c-.228.01-.281.231-.083.344l4.249,2.436a.215.215,0,0,1,.122.176l.034,4.89c0,.215.4.311.5.121l2.269-4.332a.219.219,0,0,1,.19-.1l4.893-.219c.228-.01.281-.23.083-.344l-4.249-2.435A.215.215,0,0,1,398.335,115.525Z" fill="#fff"/>
      <path id="Path_4" data-name="Path 4" d="M271.026,182.47l-1.94-4.489c-.086-.2-.488-.131-.506.084l-.4,4.874a.221.221,0,0,1-.135.167l-4.42,2.111c-.206.1-.169.323.058.35l4.863.583a.218.218,0,0,1,.182.115l1.94,4.489c.085.2.487.131.5-.084l.4-4.874a.221.221,0,0,1,.135-.167l4.42-2.111c.206-.1.169-.322-.058-.35l-4.863-.583A.215.215,0,0,1,271.026,182.47Z" fill="#fff"/>
      <path id="Path_5" data-name="Path 5" d="M366.815,198.918l-.8-4.825c-.035-.212-.441-.245-.51-.042l-1.566,4.633a.216.216,0,0,1-.171.129l-4.8.98c-.224.045-.242.272-.029.353l4.578,1.742a.219.219,0,0,1,.148.156l.8,4.825c.035.212.442.245.51.041l1.566-4.632a.217.217,0,0,1,.171-.13l4.8-.979c.223-.046.242-.272.028-.354l-4.577-1.742A.215.215,0,0,1,366.815,198.918Z" fill="#fff"/>
    </g>
    <g id="Group_9" data-name="Group 9">
      <g id="Group_5" data-name="Group 5">
        <g id="Group_4" data-name="Group 4">
          <path id="Path_6" data-name="Path 6" d="M466.089,285.218c4.081-3.282,6.68-7.627,6.99-12.522C473.8,261.37,462,251.4,446.735,250.437s-28.225,7.431-28.943,18.757c-.339,5.348,2.114,10.391,6.4,14.328-10.957,4.592-18.525,13.123-19.171,23.312C404,323.05,420.883,337.317,442.741,338.7s40.408-10.638,41.436-26.853C484.863,301.011,477.542,291.051,466.089,285.218Z" fill="#6ea891"/>
          <g id="Group_3" data-name="Group 3" style="mix-blend-mode: multiply;isolation: isolate">
            <path id="Path_7" data-name="Path 7" d="M475.6,291.9c0,.488-.007.977-.038,1.468-1.028,16.215-19.579,28.237-41.437,26.853-11.878-.753-22.281-5.315-29.145-11.923.041,15.6,16.561,29.062,37.759,30.4,21.857,1.384,40.408-10.638,41.436-26.853C484.646,304.444,481.374,297.449,475.6,291.9Z" fill="#6ea891"/>
          </g>
        </g>
        <path id="Path_8" data-name="Path 8" d="M458.054,280.82a.2.2,0,0,0-.4-.036,18.436,18.436,0,0,1-5.53,9.173,11.383,11.383,0,0,1-2.139,1.442,19.028,19.028,0,0,0-2.13,1.361c-.082.061-.166.122-.248.184-.5-6.213-1.117-12.411-1.964-18.581a.806.806,0,0,0-1.6.023c-1.12,10.277-2.2,20.493-3.583,30.653-.317,2.377-.661,4.741-.99,7.112-.258-.1-.52-.194-.775-.293-2.6-1.061-5.333-1.752-7.674-3.346a17.607,17.607,0,0,1-5.718-6.055,14.109,14.109,0,0,1-1.8-8.365.2.2,0,0,0-.391-.082,14.582,14.582,0,0,0,.388,9.261,18.629,18.629,0,0,0,5.6,7.766,20.634,20.634,0,0,0,8.4,4.683c.476.114.954.206,1.432.288q-1.375,9.7-2.873,19.355c-.413,2.513-.917,5.015-1.436,7.512l-1.68,7.466c-.56,2.485-1.034,4.976-1.364,7.487-.366,2.505-.594,5.029-.719,7.571-.161,2.537-.216,5.093-.231,7.66s0,5.144.14,7.751c.108,2.6.29,5.222.606,7.878.151,1.327.3,2.657.536,4.005.218,1.346.454,2.7.8,4.076l0,.011a.882.882,0,0,0,1.565.3c.839-1.143,1.566-2.313,2.274-3.489.723-1.173,1.366-2.365,2.007-3.56,1.229-2.4,2.325-4.835,3.347-7.29.987-2.461,1.861-4.95,2.678-7.452.764-2.511,1.487-5.034,2.1-7.576.586-2.546,1.07-5.111,1.414-7.694.314-2.587.483-5.192.566-7.8l.046-7.851c-.011-2.616-.008-5.226.087-7.826q.473-15.606-.351-31.19-.237-4.268-.543-8.526a11.2,11.2,0,0,0,1.847-.548,8.078,8.078,0,0,0,2.648-1.745,26.185,26.185,0,0,0,2.067-2.4,16.969,16.969,0,0,0,2.857-5.428A16.627,16.627,0,0,0,458.054,280.82Z" fill="#b63a3a"/>
      </g>
      <g id="Group_6" data-name="Group 6">
        <path id="Path_9" data-name="Path 9" d="M378.18,398.039h112.2c.321-4.033-2.445-9.5-5.343-12.321a14.028,14.028,0,0,0-11.1-3.846,5.51,5.51,0,0,0-5.517-8.59c.012-6.892-.431-14.012-3.5-20.183s-9.35-11.2-16.233-10.864c-5.658.275-10.693,4.1-13.709,8.9s-4.3,10.462-5.178,16.059a3.825,3.825,0,1,0-7.552,1.178c-3.655-5.181-8.12-10.5-14.326-11.795a13.7,13.7,0,0,0-15.214,19.208,20.575,20.575,0,0,0-22.249,1.434,20.179,20.179,0,0,0-7.271,20.828Z" fill="#6ea891"/>
        <path id="Path_10" data-name="Path 10" d="M388.846,398.04h89.36c.256-3.212-1.947-7.565-4.255-9.813a11.177,11.177,0,0,0-8.843-3.063,4.388,4.388,0,0,0-4.393-6.841c.009-5.489-.344-11.16-2.786-16.075S450.482,353.329,445,353.6c-4.506.219-8.516,3.269-10.918,7.088s-3.428,8.332-4.124,12.79a3.047,3.047,0,1,0-6.015.938c-2.91-4.126-6.467-8.36-11.409-9.394a10.909,10.909,0,0,0-12.117,15.3,16.387,16.387,0,0,0-17.72,1.142,16.069,16.069,0,0,0-5.791,16.588Z" fill="#6ea891" style="mix-blend-mode: multiply;isolation: isolate"/>
      </g>
      <g id="Group_7" data-name="Group 7">
        <path id="Path_11" data-name="Path 11" d="M91.488,325.528a11.44,11.44,0,0,1-11.04,19.69,21.545,21.545,0,0,1-32.16,2.34c-1.06-1.02-1.39-2.11-2.8-1.57-1.02.39-1.97,1.54-3.03,2.03a13.214,13.214,0,0,1-6.96,1.13,11.909,11.909,0,0,1-7.24-3.37,12.025,12.025,0,0,1-3.29-8.4,12.3,12.3,0,0,1,4.04-9.44,7.779,7.779,0,0,1-1.27-13.8,10.258,10.258,0,0,1,8.15-16.85,14.327,14.327,0,0,1,10.47-22.12,19.555,19.555,0,0,1,2.33-19.28,21.135,21.135,0,0,1,17.8-8.11,21.634,21.634,0,0,1,18.46,30.58,10.04,10.04,0,0,1,1.59,17.45,24.363,24.363,0,0,1,6.69,3.52,18.289,18.289,0,0,1,7.08,10.21C101.888,316.128,98.088,324,91.488,325.528Z" fill="#6ea891"/>
        <path id="Path_12" data-name="Path 12" d="M91.488,325.528a11.44,11.44,0,0,1-11.04,19.69,21.545,21.545,0,0,1-32.16,2.34c-1.06-1.02-1.39-2.11-2.8-1.57-1.02.39-1.97,1.54-3.03,2.03a13.214,13.214,0,0,1-6.96,1.13,11.909,11.909,0,0,1-7.24-3.37,12.025,12.025,0,0,1-3.29-8.4c8.97,1.27,18.66-1.93,24.63-8.84a15.362,15.362,0,0,0,26.25-11.07,17.256,17.256,0,0,0,17.38-18.14,18.289,18.289,0,0,1,7.08,10.21C101.888,316.128,98.088,324,91.488,325.528Z" fill="#6ea891" style="mix-blend-mode: multiply;isolation: isolate"/>
        <path id="Path_13" data-name="Path 13" d="M84.878,397.436c-.12-1.42-.329-2.776-.548-4.114s-.479-2.644-.747-3.935c-.446-2.629-.992-5.169-1.6-7.657-.493-2.539-1.079-5.009-1.71-7.445-.256-1.242-.561-2.46-.838-3.686l-.936-3.628c-.551-2.439-1.192-4.835-1.963-7.194-.654-2.394-1.442-4.75-2.315-7.1l-2.381-7.137c-.676-2.414-1.343-4.842-1.927-7.292l-1.466-7.415-1.132-7.495-.907-7.559L65.9,308.86a11.751,11.751,0,0,0,1.618-.238,9,9,0,0,0,3.593-1.7,31.409,31.409,0,0,0,2.931-2.727,19.755,19.755,0,0,0,2.443-3.081,18.592,18.592,0,0,0,1.661-3.493,14.506,14.506,0,0,0,.617-7.38.31.31,0,0,0-.24-.24.306.306,0,0,0-.36.241,15.414,15.414,0,0,1-2.695,6.026,15.041,15.041,0,0,1-2.1,2.357,15.388,15.388,0,0,1-2.415,1.9,11.954,11.954,0,0,1-2.784,1.241,14.358,14.358,0,0,0-2.541,1.137,195.52,195.52,0,0,1,1.022-25.608.754.754,0,0,0-1.464-.322,148.908,148.908,0,0,0-6.833,30.968l-.677,7.98-.156,3.978a30.592,30.592,0,0,0-3.308-.872A16.25,16.25,0,0,1,50.5,317.9a19.592,19.592,0,0,1-3.37-1.97A19.791,19.791,0,0,1,39.8,306.3l-.591.1a18.1,18.1,0,0,0,2.48,8.706,22.643,22.643,0,0,0,2.775,3.794,23.978,23.978,0,0,0,3.592,3.134,35.713,35.713,0,0,0,4.1,2.568,12.22,12.22,0,0,0,4.632,1.31c.205.016.41.017.614.025l.123,6.064.527,8.056c.311,2.672.54,5.365.759,8.073l.992,8.093c.48,2.674,1.044,5.338,1.742,7.965.808,2.6,1.745,5.153,2.774,7.668l1.768,3.687c.625,1.213,1.222,2.433,1.868,3.629,1.394,2.354,2.836,4.671,4.369,6.921,1.643,2.2,3.345,4.349,5.147,6.409.965,1,1.927,1.987,2.953,2.931s2.038,1.883,3.151,2.752a.81.81,0,0,0,1.306-.708Z" fill="#b63a3a"/>
      </g>
      <g id="Group_8" data-name="Group 8">
        <path id="Path_14" data-name="Path 14" d="M12.116,398.045H140.552a18.846,18.846,0,0,0-17.964-9.758,37.383,37.383,0,0,0-9.417-32.1,24.119,24.119,0,0,0-8.226-5.933,14.333,14.333,0,0,0-9.987-.519c-4.111,1.424-7.152,5.06-8.869,9.058s-2.293,8.377-2.851,12.692a5.7,5.7,0,1,0-10.964,1.057c-3.575-3.1-7.225-6.242-11.572-8.105s-9.582-2.274-13.683.083c-3.859,2.217-6.142,6.587-6.689,11s.445,8.891,1.888,13.1a29.592,29.592,0,0,0-5.479-2.023,10.16,10.16,0,0,0-5.836.272,7.71,7.71,0,0,0-4.695,5.771,16.282,16.282,0,0,0-8.714-.462A7.134,7.134,0,0,0,12.116,398.045Z" fill="#6ea891"/>
        <path id="Path_15" data-name="Path 15" d="M41.614,398.045h83.663a12.277,12.277,0,0,0-11.7-6.357,24.351,24.351,0,0,0-6.135-20.908,15.7,15.7,0,0,0-5.358-3.865,9.336,9.336,0,0,0-6.5-.338,10.367,10.367,0,0,0-5.778,5.9,30.755,30.755,0,0,0-1.857,8.268,3.714,3.714,0,1,0-7.142.689,30.006,30.006,0,0,0-7.538-5.28c-2.832-1.214-6.242-1.481-8.913.054a9.546,9.546,0,0,0-4.357,7.168,19.277,19.277,0,0,0,1.23,8.534,19.261,19.261,0,0,0-3.57-1.318,6.618,6.618,0,0,0-3.8.177,5.024,5.024,0,0,0-3.058,3.76,10.6,10.6,0,0,0-5.676-.3A4.646,4.646,0,0,0,41.614,398.045Z" fill="#6ea891" style="mix-blend-mode: multiply;isolation: isolate"/>
      </g>
    </g>
    <g id="Group_37" data-name="Group 37">
      <g id="Group_10" data-name="Group 10">
        <path id="Path_16" data-name="Path 16" d="M427.851,118.213c1.355-5.283,2.578-10.895,1.013-16.12a15.79,15.79,0,0,0-24.932-7.844c-1.9-3.384-6.945-5.722-10.6-4.427-1.473-4.372-3.387-8.911-7.164-11.56-5.08-3.562-12.347-2.584-17.459.932s-8.432,9.073-11.027,14.707a13.916,13.916,0,0,0-23.773,6.139c-2.173-4.425-4.556-9.086-8.768-11.649-3.784-2.3-8.563-2.523-12.859-1.449a23.6,23.6,0,0,0-17.8,24.811,9.869,9.869,0,0,0-5.219-.891,5.444,5.444,0,0,0-3.271,9.114c43.587,7.583,87.653,9.654,131.489,3.689C421.71,123.09,424.77,121.168,427.851,118.213Z" fill="#6ea891"/>
        <path id="Path_17" data-name="Path 17" d="M402.1,122c.935-3.645,1.778-7.517.7-11.121a10.893,10.893,0,0,0-17.2-5.412c-1.308-2.335-4.791-3.948-7.314-3.054-1.016-3.017-2.337-6.148-4.943-7.976-3.5-2.457-8.518-1.782-12.045.643s-5.817,6.26-7.608,10.147a9.6,9.6,0,0,0-16.4,4.235c-1.5-3.053-3.143-6.268-6.049-8.036a11.726,11.726,0,0,0-8.871-1,16.285,16.285,0,0,0-12.281,17.117,6.8,6.8,0,0,0-3.6-.614,3.755,3.755,0,0,0-2.257,6.287c30.07,5.232,60.472,6.66,90.715,2.545A12.3,12.3,0,0,0,402.1,122Z" fill="#6ea891" style="mix-blend-mode: multiply;isolation: isolate"/>
        <path id="Rectangle_2" data-name="Rectangle 2" d="M0,0H146.128a0,0,0,0,1,0,0V17.371a13.345,13.345,0,0,1-13.345,13.345H13.345A13.345,13.345,0,0,1,0,17.371V0A0,0,0,0,1,0,0Z" transform="translate(284.538 115.175)" fill="#b63a3a"/>
        <rect id="Rectangle_3" data-name="Rectangle 3" width="151.508" height="7.357" rx="2.137" transform="translate(281.849 113.763)" fill="#e4ac47"/>
      </g>
      <g id="Group_13" data-name="Group 13">
        <rect id="Rectangle_4" data-name="Rectangle 4" width="71.371" height="34.499" transform="translate(98.885 101.244)" fill="#b63a3a"/>
        <g id="Group_12" data-name="Group 12">
          <g id="Group_11" data-name="Group 11">
            <rect id="Rectangle_5" data-name="Rectangle 5" width="19.279" height="6.957" transform="translate(102.581 116.421)" fill="#b63a3a" style="mix-blend-mode: multiply;isolation: isolate"/>
            <rect id="Rectangle_6" data-name="Rectangle 6" width="19.279" height="6.956" transform="translate(116.593 124.57)" fill="#b63a3a" style="mix-blend-mode: multiply;isolation: isolate"/>
          </g>
          <rect id="Rectangle_7" data-name="Rectangle 7" width="71.371" height="9.715" transform="translate(98.885 101.244)" fill="#b63a3a" style="mix-blend-mode: multiply;isolation: isolate"/>
          <rect id="Rectangle_8" data-name="Rectangle 8" width="80.017" height="20.273" transform="translate(94.562 87.786)" fill="#e4ac47"/>
        </g>
      </g>
      <g id="Group_36" data-name="Group 36">
        <rect id="Rectangle_9" data-name="Rectangle 9" width="345.372" height="221.208" transform="translate(81.303 176.837)" fill="#b63a3a"/>
        <rect id="Rectangle_10" data-name="Rectangle 10" width="330.708" height="4.522" transform="translate(88.635 236.65)" fill="#fff"/>
        <rect id="Rectangle_11" data-name="Rectangle 11" width="345.865" height="6.258" transform="translate(80.811 391.787)" fill="#b63a3a"/>
        <rect id="Rectangle_12" data-name="Rectangle 12" width="367.848" height="81.683" transform="translate(71.436 139.256)" fill="#b63a3a"/>
        <path id="Path_18" data-name="Path 18" d="M414.816,193.963H95.9v-27.73H414.816ZM96.9,192.97H413.824V167.225H96.9Z" fill="#e4ac47"/>
        <rect id="Rectangle_13" data-name="Rectangle 13" width="367.848" height="17.939" transform="translate(71.436 139.256)" fill="#b63a3a" style="mix-blend-mode: multiply;isolation: isolate"/>
        <rect id="Rectangle_14" data-name="Rectangle 14" width="367.848" height="17.939" transform="translate(71.436 199.563)" fill="#b63a3a" style="mix-blend-mode: multiply;isolation: isolate"/>
        <rect id="Rectangle_15" data-name="Rectangle 15" width="342.251" height="13.938" transform="translate(84.235 216.024)" fill="#b63a3a"/>
        <rect id="Rectangle_16" data-name="Rectangle 16" width="385.939" height="20.832" transform="translate(62.39 130.702)" fill="#e4ac47"/>
        <rect id="Rectangle_17" data-name="Rectangle 17" width="385.939" height="20.832" transform="translate(62.39 204.162)" fill="#e4ac47"/>
        <g id="Group_14" data-name="Group 14">
          <rect id="Rectangle_18" data-name="Rectangle 18" width="208.926" height="59.303" transform="translate(150.734 144.859)" fill="#6ea891"/>
          <rect id="Rectangle_19" data-name="Rectangle 19" width="200.309" height="49.675" transform="translate(155.043 149.891)" fill="#6ea891" style="mix-blend-mode: multiply;isolation: isolate"/>
          <text id="SUPERMARKET" transform="translate(161.984 183.209)" fill="#fff" font-size="28.349" font-family="SegoeUI, Segoe UI"><tspan x="0" y="0">SUPERMARKET</tspan></text>
        </g>
        <g id="Group_27" data-name="Group 27">
          <g id="Group_18" data-name="Group 18">
            <rect id="Rectangle_20" data-name="Rectangle 20" width="124.403" height="128.708" transform="translate(299.032 247.746)" fill="#4a3061"/>
            <rect id="Rectangle_21" data-name="Rectangle 21" width="119.006" height="123.121" transform="translate(301.731 250.538)" fill="#4a3061" style="mix-blend-mode: multiply;isolation: isolate"/>
            <g id="Group_16" data-name="Group 16">
              <g id="Group_15" data-name="Group 15" clip-path="url(#clip-path)">
                <path id="Path_19" data-name="Path 19" d="M423.435,331.348c-.37,0-.6-.617-.6-.617l-4.32-22.837-10.987-1.482-1.852,11.6-9.011.864-2.84,20.616-7.036-.864-3.333-7.16-8.148.123-2.1-17.406-16.3.865-6.049,28.022-16.788.493-1.111-22.59-9.259-.741-1.111,8.271-9.011,1.235-3.087-8.765-14.443.37v58.026H423.435Z" fill="#4a3061"/>
              </g>
            </g>
            <g id="Group_17" data-name="Group 17">
              <path id="Path_20" data-name="Path 20" d="M377.877,373.659H346.855L301.731,271.417V250.538h21.814Z" fill="#fff" opacity="0.3" style="mix-blend-mode: overlay;isolation: isolate"/>
              <path id="Path_21" data-name="Path 21" d="M407.756,373.659H385.537L331.214,250.538h22.209Z" fill="#fff" opacity="0.3" style="mix-blend-mode: overlay;isolation: isolate"/>
            </g>
          </g>
          <g id="Group_22" data-name="Group 22">
            <rect id="Rectangle_23" data-name="Rectangle 23" width="124.403" height="128.708" transform="translate(208.947 376.453) rotate(180)" fill="#4a3061"/>
            <rect id="Rectangle_24" data-name="Rectangle 24" width="119.006" height="123.121" transform="translate(87.243 250.538)" fill="#4a3061" style="mix-blend-mode: multiply;isolation: isolate"/>
            <g id="Group_20" data-name="Group 20">
              <g id="Group_19" data-name="Group 19" clip-path="url(#clip-path-2)">
                <path id="Path_22" data-name="Path 22" d="M84.544,331.348c.37,0,.6-.617.6-.617l4.32-22.837,10.987-1.482,1.852,11.6,9.011.864,2.84,20.616,7.036-.864,3.333-7.16,8.147.123,2.1-17.406,16.295.865,6.049,28.022,16.788.493,1.111-22.59,9.259-.741,1.111,8.271,9.011,1.235,3.086-8.765,14.444.37v58.026H84.544Z" fill="#4a3061"/>
              </g>
            </g>
            <g id="Group_21" data-name="Group 21">
              <path id="Path_23" data-name="Path 23" d="M130.1,373.659h31.022l45.125-102.242V250.538H184.434Z" fill="#fff" opacity="0.3" style="mix-blend-mode: overlay;isolation: isolate"/>
              <path id="Path_24" data-name="Path 24" d="M100.223,373.659h22.219l54.322-123.121H154.556Z" fill="#fff" opacity="0.3" style="mix-blend-mode: overlay;isolation: isolate"/>
            </g>
          </g>
          <g id="Group_24" data-name="Group 24">
            <rect id="Rectangle_26" data-name="Rectangle 26" width="39.99" height="144.041" transform="translate(214 247.746)" fill="#4a3061"/>
            <rect id="Rectangle_27" data-name="Rectangle 27" width="1.05" height="17.924" transform="translate(252.008 310.327)" fill="#fff"/>
            <rect id="Rectangle_28" data-name="Rectangle 28" width="32.966" height="130.411" transform="translate(217.382 251.955)" fill="#4a3061" style="mix-blend-mode: multiply;isolation: isolate"/>
            <g id="Group_23" data-name="Group 23">
              <path id="Path_25" data-name="Path 25" d="M249.656,382.366h-7.416L217.382,289.9V262.377Z" fill="#fff" opacity="0.3" style="mix-blend-mode: overlay;isolation: isolate"/>
              <path id="Path_26" data-name="Path 26" d="M250.348,344.688v34.65L217.382,256.775v-4.82h8.028Z" fill="#fff" opacity="0.3" style="mix-blend-mode: overlay;isolation: isolate"/>
            </g>
          </g>
          <g id="Group_26" data-name="Group 26">
            <rect id="Rectangle_29" data-name="Rectangle 29" width="40.634" height="144.041" transform="translate(253.989 247.746)" fill="#4a3061"/>
            <rect id="Rectangle_30" data-name="Rectangle 30" width="1.05" height="17.924" transform="translate(255.197 310.327)" fill="#fff"/>
            <rect id="Rectangle_31" data-name="Rectangle 31" width="33.497" height="130.411" transform="translate(257.426 251.955)" fill="#4a3061" style="mix-blend-mode: multiply;isolation: isolate"/>
            <g id="Group_25" data-name="Group 25">
              <path id="Path_27" data-name="Path 27" d="M290.219,382.366h-7.536L257.426,289.9V262.377Z" fill="#fff" opacity="0.3" style="mix-blend-mode: overlay;isolation: isolate"/>
              <path id="Path_28" data-name="Path 28" d="M290.923,344.688v34.65l-33.5-122.563v-4.82h8.158Z" fill="#fff" opacity="0.3" style="mix-blend-mode: overlay;isolation: isolate"/>
            </g>
          </g>
        </g>
        <g id="Group_31" data-name="Group 31">
          <path id="Path_29" data-name="Path 29" d="M390.231,303.584a2.7,2.7,0,0,0-2.941-2.438l-4.284.4-25.611-15.214a1.824,1.824,0,1,0-3.182.367l-22.824,19.686-3.762.353a2.7,2.7,0,0,0-2.438,2.942l2.248,23.981a2.7,2.7,0,0,0,2.942,2.438l59.663-5.594a2.7,2.7,0,0,0,2.438-2.942Zm-35.768-16.592a1.8,1.8,0,0,0,2.754-.318l25.14,14.935-50.309,4.716Z" fill="#4a3061" style="mix-blend-mode: multiply;isolation: isolate"/>
          <g id="Group_30" data-name="Group 30">
            <g id="Group_29" data-name="Group 29">
              <path id="Rectangle_32" data-name="Rectangle 32" d="M2.7,0H26.788a2.7,2.7,0,0,1,2.7,2.7V62.626a2.7,2.7,0,0,1-2.7,2.7H2.7a2.7,2.7,0,0,1-2.7-2.7V2.7A2.7,2.7,0,0,1,2.7,0Z" transform="translate(391.548 296.526) rotate(77.76)" fill="#6ea891"/>
              <rect id="Rectangle_33" data-name="Rectangle 33" width="61.493" height="25.655" rx="1.469" transform="translate(329.986 311.844) rotate(-12.241)" fill="#6ea891" style="mix-blend-mode: multiply;isolation: isolate"/>
              <g id="Group_28" data-name="Group 28">
                <text id="WELCOME" transform="translate(362.032 314.022) rotate(-12.241)" fill="#fff" font-size="8.58" font-family="Montserrat-Bold, Montserrat" font-weight="700"><tspan x="-24.02" y="0">WELCOME</tspan></text>
                <text id="BACK" transform="translate(364.566 326.095) rotate(-12.241)" fill="#fff" font-size="15.391" font-family="Montserrat-Black, Montserrat" font-weight="800"><tspan x="-23.686" y="0">BACK</tspan></text>
              </g>
            </g>
            <path id="Path_30" data-name="Path 30" d="M333.347,310.331l-.284-.258,22.654-24.864,30.292,13.378-.155.351-30.039-13.267Z" fill="#6ea891"/>
            <path id="Path_31" data-name="Path 31" d="M357.479,285.13a1.823,1.823,0,1,1-2.169-1.4A1.824,1.824,0,0,1,357.479,285.13Z" fill="#fff"/>
          </g>
        </g>
        <g id="Group_35" data-name="Group 35">
          <path id="Path_32" data-name="Path 32" d="M184.606,282.853v-5.579h-4.92v5.579H165.845v43.183h32.6V282.853Z" fill="#4a3061" style="mix-blend-mode: multiply;isolation: isolate"/>
          <g id="Group_34" data-name="Group 34">
            <rect id="Rectangle_34" data-name="Rectangle 34" width="32.602" height="43.183" transform="translate(164.344 282.853)" fill="#e4ac47"/>
            <rect id="Rectangle_35" data-name="Rectangle 35" width="4.92" height="7.011" transform="translate(178.185 277.275)" fill="#fff"/>
            <g id="Group_33" data-name="Group 33">
              <path id="Path_33" data-name="Path 33" d="M189.295,301.9a1.179,1.179,0,0,0-1.09.731h-1.082a6.465,6.465,0,0,0-1.579-3.814l.764-.764a1.181,1.181,0,1,0-.636-.636l-.765.764a6.464,6.464,0,0,0-3.813-1.579v-1.082a1.18,1.18,0,1,0-.9,0v1.082a6.465,6.465,0,0,0-3.814,1.579l-.764-.764a1.181,1.181,0,1,0-.636.636l.764.764a6.465,6.465,0,0,0-1.579,3.814h-1.082a1.181,1.181,0,1,0,0,.9h1.082a6.464,6.464,0,0,0,1.579,3.813l-.764.765a1.18,1.18,0,1,0,.636.636l.764-.764a6.471,6.471,0,0,0,3.814,1.579v1.082a1.18,1.18,0,1,0,.9,0v-1.082a6.471,6.471,0,0,0,3.813-1.579l.765.764a1.18,1.18,0,1,0,.636-.636l-.764-.765a6.464,6.464,0,0,0,1.579-3.813h1.082a1.18,1.18,0,1,0,1.09-1.63Z" fill="#6ea891"/>
              <g id="Group_32" data-name="Group 32">
                <path id="Path_34" data-name="Path 34" d="M180.644,315.926a12.842,12.842,0,1,1,12.843-12.843A12.857,12.857,0,0,1,180.644,315.926Zm0-23.789a10.947,10.947,0,1,0,10.947,10.946A10.959,10.959,0,0,0,180.644,292.137Z" fill="#b63a3a"/>
                <rect id="Rectangle_36" data-name="Rectangle 36" width="1.896" height="23.681" transform="translate(172.283 294.683) rotate(-45)" fill="#b63a3a"/>
              </g>
            </g>
          </g>
        </g>
      </g>
    </g>
    <g id="Group_53" data-name="Group 53">
      <ellipse id="Ellipse_1" data-name="Ellipse 1" cx="73.248" cy="9.594" rx="73.248" ry="9.594" transform="translate(76.931 405.209)" fill="#d8fff3"/>
      <g id="Group_51" data-name="Group 51">
        <path id="Path_35" data-name="Path 35" d="M118.018,262.448a4.42,4.42,0,0,1-4.64,4.16,4.961,4.961,0,0,1-2.16-.48,4.134,4.134,0,0,1-2.48-3.68,4.421,4.421,0,0,1,4.64-4.17,4.885,4.885,0,0,1,3.21,1.16A3.963,3.963,0,0,1,118.018,262.448Z" fill="#b63a3a"/>
        <path id="Path_36" data-name="Path 36" d="M118.018,262.448a4.42,4.42,0,0,1-4.64,4.16,4.961,4.961,0,0,1-2.16-.48,9.3,9.3,0,0,1,5.37-6.69A3.963,3.963,0,0,1,118.018,262.448Z" fill="#e4ac47"/>
        <ellipse id="Ellipse_2" data-name="Ellipse 2" cx="10.237" cy="9.203" rx="10.237" ry="9.203" transform="translate(111.855 258.95)" fill="#b63a3a"/>
        <path id="Path_37" data-name="Path 37" d="M107.015,412.16l9.515,3.2a5.16,5.16,0,0,1,2.6,1.9,3.754,3.754,0,0,1,.6,1.28H100.3a12.214,12.214,0,0,1,.742-6.381Z" fill="#6ea891"/>
        <path id="Path_38" data-name="Path 38" d="M138.97,408.5l9.515,3.206a5.158,5.158,0,0,1,2.6,1.895,3.79,3.79,0,0,1,.6,1.28H132.258A12.214,12.214,0,0,1,133,408.5Z" fill="#6ea891"/>
        <path id="Path_39" data-name="Path 39" d="M139.112,403.5l-.142,5s-1.831.856-5.97,0l-.3-5.474Z" fill="#e5a890"/>
        <path id="Path_40" data-name="Path 40" d="M108.15,407.114l-1.138,5.046s-1.83.856-5.969,0l.7-5.524Z" fill="#e5a890"/>
        <g id="Group_39" data-name="Group 39">
          <path id="Path_41" data-name="Path 41" d="M130.531,287.441s9.13,23.84,11.121,26.069,18.87,13.392,18.87,13.392l-2.23,3.567s-16.879-8.121-22.532-12.261-8.437-21.2-8.437-21.2Z" fill="#e5a890"/>
          <g id="Group_38" data-name="Group 38">
            <path id="Path_42" data-name="Path 42" d="M160.517,326.918s3.674,1.215,4.1,1.733,5.847,5.149,5.026,5.949c-.342.333-2.727-1.834-3.763-2.787,1.092,1.051,3.294,3.707,2.782,4.121s-2.857-2.085-3.968-3.09c.94.89,2.671,3.11,2.341,3.4-.461.411-3.69-2.682-3.69-2.682s1.408,1.916,1,2.242-6.113-5.327-6.113-5.327Z" fill="#e5a890"/>
            <path id="Path_43" data-name="Path 43" d="M160.517,326.918s5.784-.437,5.984-.139c.327.487-1.893,1.95-1.893,1.95Z" fill="#e5a890"/>
          </g>
          <path id="Path_44" data-name="Path 44" d="M130.531,287.441c1.578.617,4.132,10.117,8.123,17.024,0,0-3.292,2.476-10.976,3.551l-3.662-13.893Z" fill="#6ea891"/>
        </g>
        <g id="Group_40" data-name="Group 40">
          <path id="Path_45" data-name="Path 45" d="M134.266,332.34s7.153,35.968,6.2,73.352a23.927,23.927,0,0,1-9.113.155s-4.827-51.132-12.869-73.507Z" fill="#362446"/>
          <path id="Path_46" data-name="Path 46" d="M108.311,332.7a599.781,599.781,0,0,1-8.144,76.179,18.783,18.783,0,0,0,9.063.49s12.3-46.852,14.189-76.669Z" fill="#362446"/>
        </g>
        <path id="Path_47" data-name="Path 47" d="M134.571,332.7l-4.056-25.5s2.471-12.271.016-19.759l-6.048-1.973h-5.944l-6.008,1.973-1.658,21.514s-3.048,20.261-2.929,24.363C107.944,333.318,129.144,337.889,134.571,332.7Z" fill="#6ea891"/>
        <g id="Group_47" data-name="Group 47">
          <g id="Group_46" data-name="Group 46">
            <g id="Group_41" data-name="Group 41">
              <path id="Path_48" data-name="Path 48" d="M130.91,273.525a8.026,8.026,0,0,1-1.361,4.563,10.111,10.111,0,0,1-1.879,1.857c-1.911,1.464-3.274,1.634-3.2,5.907a4.158,4.158,0,0,1-5.883.164,34.454,34.454,0,0,0-1.355-7.8q-.219-.762-.495-1.542c-.1-.288-.211-.581-.329-.873-.066-.173-.137-.351-.213-.529,0,0-.047-.459-.1-1.175a47.393,47.393,0,0,1-.221-7.289c1.072-6.847,12.9-6.794,14.137-.7A27.025,27.025,0,0,1,130.91,273.525Z" fill="#e5a890"/>
              <path id="Path_49" data-name="Path 49" d="M126.912,267.583a10.773,10.773,0,0,1-4.482-.066l-2.629-.412a8.777,8.777,0,0,1-1.587,3.089,2.716,2.716,0,0,1-3.052.839,3.119,3.119,0,0,1-1.468-2.175,7.056,7.056,0,0,1,1.859-6.241,9.431,9.431,0,0,1,5.842-2.73,9.226,9.226,0,0,1,5.01.75,6.929,6.929,0,0,1,2.918,2.622,2.129,2.129,0,0,1,.484,1.719,3.583,3.583,0,0,1-1.016,1.567A4.547,4.547,0,0,1,126.912,267.583Z" fill="#b63a3a"/>
              <path id="Path_50" data-name="Path 50" d="M124.2,281.778a.143.143,0,0,0,.116-.144.141.141,0,0,0-.146-.137,7.094,7.094,0,0,1-3.574-.833.142.142,0,0,0-.192.058.14.14,0,0,0,.058.191,7.379,7.379,0,0,0,3.717.867Z" fill="#f4d9cb" style="mix-blend-mode: multiply;isolation: isolate"/>
            </g>
            <g id="Group_44" data-name="Group 44">
              <path id="Path_51" data-name="Path 51" d="M126.937,272.927a.879.879,0,0,1,.533-.043.449.449,0,0,1,.306.363c.06.37-.263.625-.555.773a.111.111,0,0,1-.149-.034.109.109,0,0,1,.035-.149c.2-.1.48-.268.46-.535a.236.236,0,0,0-.17-.216.714.714,0,0,0-.4.047A.108.108,0,0,1,126.937,272.927Z" fill="#bd8a73"/>
              <path id="Path_52" data-name="Path 52" d="M130.706,272.972c.019.322-.361.606-.848.634s-.9-.209-.915-.532.36-.606.847-.634S130.687,272.65,130.706,272.972Z" fill="#e1918f"/>
              <path id="Path_53" data-name="Path 53" d="M125.19,273.162c.018.323-.361.607-.848.635s-.9-.21-.915-.532.36-.607.847-.635S125.171,272.84,125.19,273.162Z" fill="#e1918f"/>
              <path id="Path_54" data-name="Path 54" d="M125.685,269.19a3.3,3.3,0,0,0-1.569.468.25.25,0,0,0-.069.344.254.254,0,0,0,.344.07c.055-.033.11-.064.167-.093l.034-.018.008,0,.093-.041a3.023,3.023,0,0,1,.334-.121,2.531,2.531,0,0,1,.687-.109.251.251,0,0,0,.234-.262A.254.254,0,0,0,125.685,269.19Z" fill="#b63a3a"/>
              <path id="Path_55" data-name="Path 55" d="M128.093,269.07a3.3,3.3,0,0,1,1.544.543.249.249,0,0,1,.053.347.254.254,0,0,1-.347.053c-.053-.035-.107-.069-.162-.1l-.033-.019-.008,0-.091-.046a2.946,2.946,0,0,0-.328-.137,2.554,2.554,0,0,0-.68-.142.25.25,0,0,1-.221-.273A.253.253,0,0,1,128.093,269.07Z" fill="#b63a3a"/>
              <path id="Path_56" data-name="Path 56" d="M127.677,275.407c.071-.03,0,0-.013,0a.509.509,0,0,1-.055.018c-.04.013-.081.024-.122.033s-.082.016-.124.024h0l-.068.005a1.611,1.611,0,0,1-.241-.005l-.022,0-.052-.009c-.042-.008-.083-.018-.123-.029s-.082-.026-.122-.041l-.006,0h0l-.053-.025a2.045,2.045,0,0,1-.222-.13l-.008-.005-.044-.036c-.036-.03-.07-.062-.1-.1s-.055-.056-.08-.086l-.018-.021c-.012-.015-.023-.032-.034-.047a.291.291,0,0,0-.505.291,1.862,1.862,0,0,0,2.313.664.291.291,0,0,0,.107-.4A.3.3,0,0,0,127.677,275.407Z" fill="#a85d5b"/>
              <g id="Group_42" data-name="Group 42">
                <ellipse id="Ellipse_3" data-name="Ellipse 3" cx="0.485" cy="0.629" rx="0.485" ry="0.629" transform="translate(124.845 270.687)"/>
                <path id="Path_57" data-name="Path 57" d="M125.024,270.974a.148.148,0,1,0,.143-.185A.169.169,0,0,0,125.024,270.974Z" fill="#fff"/>
              </g>
              <g id="Group_43" data-name="Group 43">
                <path id="Path_58" data-name="Path 58" d="M128.146,271.316a.5.5,0,1,0,.485-.629A.571.571,0,0,0,128.146,271.316Z"/>
                <path id="Path_59" data-name="Path 59" d="M128.324,270.974a.148.148,0,1,0,.143-.185A.169.169,0,0,0,128.324,270.974Z" fill="#fff"/>
              </g>
            </g>
            <g id="Group_45" data-name="Group 45">
              <path id="Path_60" data-name="Path 60" d="M114.113,273.944c.753,1.256,2.129,1.816,3.073,1.25s1.1-2.044.346-3.3-2.13-1.817-3.074-1.251S113.359,272.687,114.113,273.944Z" fill="#e5a890"/>
              <path id="Path_61" data-name="Path 61" d="M114.524,271.533a1.78,1.78,0,0,1,1.711.3,3.4,3.4,0,0,1,1.073,1.734c.083.263-.32.415-.4.15a3.094,3.094,0,0,0-.859-1.484,1.366,1.366,0,0,0-1.37-.292A.215.215,0,0,1,114.524,271.533Z" fill="#bd8a73"/>
              <path id="Path_62" data-name="Path 62" d="M115.227,273.02a1.112,1.112,0,0,1,1.483-.581.215.215,0,0,1-.174.394l-.071-.028-.01,0-.037-.009a1.05,1.05,0,0,0-.149-.021h0c-.015,0-.031,0-.047,0s-.05,0-.075.007l-.037.006-.008,0a.71.71,0,0,0-.075.022c-.025.009-.049.019-.073.03l-.02.01-.02.012a.877.877,0,0,0-.135.1l-.006.007-.027.03a.791.791,0,0,0-.051.064l-.029.042v0l0,0c-.012.028-.028.055-.04.083a.217.217,0,0,1-.284.11A.221.221,0,0,1,115.227,273.02Z" fill="#bd8a73"/>
            </g>
          </g>
        </g>
        <g id="Group_49" data-name="Group 49">
          <path id="Path_63" data-name="Path 63" d="M112.531,287.441S103.4,309.825,103.4,313.3c0,5.437,3.432,23.174,3.432,23.174l4.959-.771s-2-21.013-1.875-22.287c.277-2.858,4.319-10.643,4.319-10.643Z" fill="#e5a890"/>
          <path id="Path_64" data-name="Path 64" d="M112.531,287.441c-1.945.842-7.548,15.019-7.548,15.019a15.761,15.761,0,0,0,7.326,5.215l2.834-5.408Z" fill="#6ea891"/>
          <g id="Group_48" data-name="Group 48">
            <path id="Path_65" data-name="Path 65" d="M104.8,340.126a8.96,8.96,0,0,1,6.249-.452,4.83,4.83,0,0,1,3.748,3.864,22.405,22.405,0,0,1,.257,3.858l.113,4.245a.563.563,0,0,1-1.125,0c-.055-2.049-.089-4.1-.166-6.148-.068-1.8-.433-3.666-2.262-4.45a8.129,8.129,0,0,0-5.651-.206,4.987,4.987,0,0,0-3.151,3.912,16.646,16.646,0,0,0,.348,6.879c.152.706-.932,1.008-1.084.3C101.252,348.082,100.6,342.3,104.8,340.126Z" fill="#e4ac47"/>
            <path id="Path_66" data-name="Path 66" d="M96.093,378.8c1.423.766,24.792.947,25.68-.512a17.619,17.619,0,0,0,.1-4.186c-.267-7.834-1.581-23.823-1.581-23.823l-22.54-.53s-.245,2.239-.562,5.478C96.374,363.49,95.074,378.251,96.093,378.8Z" fill="#e4ac47"/>
            <path id="Path_67" data-name="Path 67" d="M106.073,339a8.963,8.963,0,0,1,6.248-.451,4.828,4.828,0,0,1,3.749,3.864,22.506,22.506,0,0,1,.257,3.858l.113,4.245a.563.563,0,0,1-1.125,0c-.055-2.049-.089-4.1-.166-6.148-.069-1.8-.433-3.666-2.262-4.45a8.129,8.129,0,0,0-5.651-.206,4.99,4.99,0,0,0-3.152,3.912,16.647,16.647,0,0,0,.349,6.879c.152.706-.932,1.008-1.085.3C102.521,346.957,101.865,341.173,106.073,339Z" fill="#e4ac47"/>
          </g>
          <path id="Path_68" data-name="Path 68" d="M106.834,336.469s-.9,4.723-.338,5.359,1.6,0,1.6,0a1.884,1.884,0,0,0,1.894.283,4.455,4.455,0,0,0,2.01-.066,2.954,2.954,0,0,0,1.692-.376c.535-.448-1.9-5.971-1.9-5.971Z" fill="#e5a890"/>
          <path id="Path_69" data-name="Path 69" d="M96.093,378.8c1.423.766,24.792.947,25.68-.512a17.619,17.619,0,0,0,.1-4.186,35.591,35.591,0,0,1-14.7-5.147,24.823,24.823,0,0,1-5.482-4.871,22.188,22.188,0,0,1-3.439-5.581,19.465,19.465,0,0,1-1.019-3.122c-.014-.05-.028-.1-.041-.154C96.374,363.49,95.074,378.251,96.093,378.8Z" fill="#eacab1" style="mix-blend-mode: multiply;isolation: isolate"/>
        </g>
        <g id="Group_50" data-name="Group 50">
          <path id="Path_70" data-name="Path 70" d="M168.17,334.157a7.431,7.431,0,0,0,2.456,1.549,23.872,23.872,0,0,0,9.4,1.823c0-.035.013-.071.016-.107a12.513,12.513,0,0,0,2.884-.263,3.578,3.578,0,0,0,2.137-1.224,2.237,2.237,0,0,0,.187-2.234,2.039,2.039,0,0,0-1.739-1.153,5.565,5.565,0,0,0-1.356.241l-1.244.285a6.21,6.21,0,0,1-1.558-1.584,6.7,6.7,0,0,0-2.066-2.1,5.525,5.525,0,0,0-3.637-.176,9.012,9.012,0,0,1-3.673.309A5.975,5.975,0,0,1,168.17,334.157Zm11.994,2.492a8.153,8.153,0,0,1,1.176-2.879l1.174-.27a2.579,2.579,0,0,1,1.257-.138,1.361,1.361,0,0,1,.875,1.677c-.233.854-1.144,1.185-1.921,1.374A11.105,11.105,0,0,1,180.164,336.649Z" fill="#fff"/>
          <path id="Path_71" data-name="Path 71" d="M166.482,329.235a1.73,1.73,0,0,1,2.179-1.055,4.849,4.849,0,0,1,2.032,1.959c.285.41-.385.8-.667.391a4.476,4.476,0,0,0-1.5-1.568.812.812,0,0,0-.95.068,1.666,1.666,0,0,0-.5.8c-.433,1.465.634,2.774,1.586,3.753.348.357-.2.9-.546.547C166.877,332.851,165.643,331.072,166.482,329.235Z" fill="#fff"/>
        </g>
        <path id="Path_72" data-name="Path 72" d="M112.564,304.871a17.29,17.29,0,0,1,2.793-5.162c.179-.228.556.024.375.254A17.032,17.032,0,0,0,114.6,301.6a9.685,9.685,0,0,1,1.053-.334.227.227,0,0,1,.091.444,8.982,8.982,0,0,0-1.5.518h-.006a16.842,16.842,0,0,0-1.239,2.8A.227.227,0,0,1,112.564,304.871Z" fill="#6ea891" style="mix-blend-mode: multiply;isolation: isolate"/>
        <path id="Path_73" data-name="Path 73" d="M131.229,301.694c.09-.276.53-.167.439.111a17.164,17.164,0,0,0-.815,4.192c-.019.289-.472.3-.453.009A17.593,17.593,0,0,1,131.229,301.694Z" fill="#6ea891" style="mix-blend-mode: multiply;isolation: isolate"/>
        <path id="Path_74" data-name="Path 74" d="M120.755,306.443h-.027a13.047,13.047,0,0,1-3.267-.312,4.53,4.53,0,0,1-2.747-1.88.237.237,0,1,1,.4-.249,4.063,4.063,0,0,0,2.466,1.671,12.729,12.729,0,0,0,3.148.3.237.237,0,0,1,.023.472Z" fill="#6ea891"/>
      </g>
      <g id="Group_52" data-name="Group 52">
        <path id="Path_75" data-name="Path 75" d="M163.65,358.984l.068,1.373.131,2.709,2.564,51.342a.091.091,0,0,0-.013.05.552.552,0,0,0,.018.1l.009.213c0,.086.1.167.281.249,1.572,1.418,9.075,2.524,18.485,2.718.988.023,2,.032,3.022.032.693,0,1.382,0,2.057-.014,9.578-.14,17.339-1.223,19.237-2.627.394-.118.607-.231.607-.358l.961-16.392.009-.168,2.3-39.222Z" fill="#e4ac47"/>
        <path id="Path_76" data-name="Path 76" d="M173.326,388.376a15.189,15.189,0,1,0,15.19-15.189A15.189,15.189,0,0,0,173.326,388.376Zm16.9,9.7.039-4.847,6.045-1.083-1.494-2.476-.973.491.945-4.949,4.778,1.589-.911.489s1.7,1.55,1.33,2.373l-3.015,6.671C195.777,397.369,190.225,398.072,190.225,398.072Zm-3.51-15.182.848.684-4.9,1.177-.52-5.008.821.629s.712-2.189,1.615-2.189H191.9c1.438.658,3.955,4.789,3.955,4.789l-4.023,2.6-3.476-5.063Zm-9.721,7.1c.108-1.577,3.084-5.391,3.084-5.391l3.854,2.845-3.51,5.04,2.808.7.34-1.036,2.832,4.168-4.5,2.255.3-.99s-2.3.107-2.619-.738Z" fill="#fff"/>
        <path id="Path_77" data-name="Path 77" d="M163.646,358.987c0,.548.937,1.055,2.614,1.513.231.059.471.122.729.181,4.3,1.015,12.328,1.7,21.525,1.7s17.222-.684,21.526-1.7c.584-.136,1.1-.281,1.54-.43,1.16-.39,1.8-.816,1.8-1.264,0-1.88-11.132-3.4-24.865-3.4q-2.262,0-4.417.054c-1.867.046-3.661.118-5.36.218l-.489.027a88.817,88.817,0,0,0-9.406,1.015C165.585,357.478,163.646,358.2,163.646,358.987Z" fill="#b63a3a"/>
        <path id="Path_78" data-name="Path 78" d="M163.849,363.066l2.564,51.342a.091.091,0,0,0-.013.05.552.552,0,0,0,.018.1l.009.213c0,.086.1.167.281.249,1.572,1.418,9.075,2.524,18.485,2.718.988.023,2,.032,3.022.032.693,0,1.382,0,2.057-.014,9.578-.14,17.339-1.223,19.237-2.627.394-.118.607-.231.607-.358l.961-16.392.009-.168a61.4,61.4,0,0,1-28.516-11.784,57.265,57.265,0,0,1-7.648-7,56.613,56.613,0,0,1-10-15.309c-.376-.852-.716-2.361-1.205-3.756Z" fill="#eacab1" style="mix-blend-mode: multiply;isolation: isolate"/>
        <path id="Path_79" data-name="Path 79" d="M166.26,360.5c.231.059.471.122.729.181,4.3,1.015,12.328,1.7,21.525,1.7s17.222-.684,21.526-1.7c.584-.136,1.1-.281,1.54-.43a1.4,1.4,0,0,0-.236-.485,2.113,2.113,0,0,0-1.921-.679c-.974.09-1.97.715-2.944.557a27.3,27.3,0,0,0-3.181-.625c-2.12-.105-4.377.19-6.37-.707a10.8,10.8,0,0,0-2.632-1.165c-2.189-.335-4.155,1.944-6.334,1.582a4.583,4.583,0,0,1-2.456-1.554c-.471-.508-.911-1.056-1.409-1.532a5.3,5.3,0,0,0-.67-.562,2.849,2.849,0,0,0-2.787-.439c-.679.331-1.187,1.056-1.9,1.219a1,1,0,0,1-.2.036,1.271,1.271,0,0,1-.29-.009c-.775-.1-1.373-.856-2.007-1.387a4.423,4.423,0,0,0-4.816-.493,4.882,4.882,0,0,0-1.038.761,7.528,7.528,0,0,0-1.286,1.708c-.087.149-.173.294-.259.426a7.823,7.823,0,0,1-1.517,1.771A2.976,2.976,0,0,0,166.26,360.5Z" fill="#fff"/>
      </g>
    </g>
    <g id="Group_54" data-name="Group 54">
      <path id="Path_80" data-name="Path 80" d="M301.748,352.665a22.976,22.976,0,0,0-6.073-4.89,11.058,11.058,0,0,0-7.584-1.141,9.8,9.8,0,0,0-6.588,6,12.471,12.471,0,0,0,.218,9.044,17.237,17.237,0,0,0,5.684,7.172c3.3,2.5,7.252,3.977,11.137,5.42l11.964,4.443c1.515.562,4.22,1.391,4-1.08a29.234,29.234,0,0,0-1.663-6.287,51.088,51.088,0,0,0-6.137-12.461A50.108,50.108,0,0,0,301.748,352.665Z" fill="#6ea891"/>
      <path id="Path_81" data-name="Path 81" d="M308.445,354.664c-.2-7.233,1.116-14.688,5-20.792a19.546,19.546,0,0,1,7.763-7.282,12.456,12.456,0,0,1,10.431-.382c4.626,2.121,7.088,7.427,7.4,12.508.347,5.733-1.557,11.423-4.421,16.4s-6.659,9.348-10.429,13.681l-6.249,7.181a5.969,5.969,0,0,1-3.145,2.3c-1.973.361-2.736-1.566-3.086-3.091-.517-2.251-1.029-4.5-1.489-6.768A80.711,80.711,0,0,1,308.445,354.664Z" fill="#5b8372"/>
      <path id="Path_82" data-name="Path 82" d="M320.269,356.242a20.15,20.15,0,0,1,7.14-5.888,12.649,12.649,0,0,1,9.091-.762,9.269,9.269,0,0,1,6.2,6.43c.822,3.517-.865,7.243-3.43,9.788s-5.9,4.133-9.176,5.66-6.619,3.086-9.225,5.589a19.968,19.968,0,0,1-2.116,1.959,3.707,3.707,0,0,1-2.7.777c-2.991-.51-2.087-6.422-1.871-8.51a29.417,29.417,0,0,1,2.9-10.01A28.248,28.248,0,0,1,320.269,356.242Z" fill="#6ea891"/>
      <path id="Path_83" data-name="Path 83" d="M326.452,375.917l-.785,3.86-.149.721-.424,2.082-.149.729-3,14.763H305.309l-2.964-14.547-.138-.692-.4-1.971-.152-.736-.855-4.209Z" fill="#e4ac47"/>
      <path id="Path_84" data-name="Path 84" d="M325.668,379.777l-.149.721a6.363,6.363,0,0,0-3.324.242c-1.733.617-3.057,2.488-5.084,1.923-1.517-.428-2.889-2.217-4.581-1.737a18.79,18.79,0,0,0-2.458,1.342,3.717,3.717,0,0,1-2.871.038c-1.513-.547-3.748-2.477-5.395-1.443l-.153-.736a3.419,3.419,0,0,1,2.183-.16,28.047,28.047,0,0,1,3.484,1.6,3.247,3.247,0,0,0,1.975.2,4.454,4.454,0,0,0,1.212-.591,5.12,5.12,0,0,1,2.551-1.074,4.556,4.556,0,0,1,2.4.87,5.148,5.148,0,0,0,2.391,1.059c1.093.038,1.978-.829,2.844-1.375a6.667,6.667,0,0,1,2.711-.96A7.019,7.019,0,0,1,325.668,379.777Z" fill="#e89fb9" style="mix-blend-mode: multiply;isolation: isolate"/>
      <path id="Path_85" data-name="Path 85" d="M325.1,382.581l-.149.729a6.355,6.355,0,0,0-2.751.327c-1.733.617-3.057,2.488-5.084,1.919-1.517-.424-2.889-2.213-4.581-1.733a18.218,18.218,0,0,0-2.458,1.342,3.73,3.73,0,0,1-2.871.037c-1.353-.49-3.287-2.089-4.856-1.677l-.138-.691a3.7,3.7,0,0,1,1.629.026,28.056,28.056,0,0,1,3.484,1.6,3.219,3.219,0,0,0,1.975.208,4.454,4.454,0,0,0,1.212-.591A5.086,5.086,0,0,1,313.058,383a4.531,4.531,0,0,1,2.4.87,5.191,5.191,0,0,0,2.391,1.06c1.093.037,1.978-.829,2.844-1.376a6.622,6.622,0,0,1,2.711-.959A6.994,6.994,0,0,1,325.1,382.581Z" fill="#e89fb9" style="mix-blend-mode: multiply;isolation: isolate"/>
    </g>
  </g>
</svg>
